<svg width="20" height="19" viewBox="0 0 20 19" fill="none" xmlns="http://www.w3.org/2000/svg">
<rect x="3.78796" y="3.60693" width="15.2612" height="15.2923" rx="5" fill="#BCC5D2" fill-opacity="0.4"/>
<path d="M6.09738 6.92588L6 6.90284L5.40224 6.79655C5.17455 6.95279 5.11662 7.26402 5.27286 7.49172L5.68513 7.20882C5.27286 7.49172 5.27345 7.49257 5.27345 7.49257L5.27474 7.49445L5.27941 7.50122L5.29684 7.52633C5.31197 7.54805 5.33399 7.57949 5.36217 7.61927C5.41851 7.69881 5.49959 7.81187 5.59952 7.94731C5.79892 8.21757 6.07551 8.57987 6.3817 8.94391C6.6856 9.30523 7.02942 9.6812 7.36307 9.9711C7.52967 10.1159 7.70538 10.2494 7.88204 10.3492C8.05106 10.4447 8.26612 10.5353 8.50031 10.5353C8.73452 10.5353 8.94957 10.4447 9.11857 10.3492C9.2952 10.2494 9.47086 10.1158 9.63739 9.97102C9.97089 9.6811 10.3145 9.3051 10.6182 8.94378C10.9242 8.57973 11.2006 8.21742 11.3998 7.94716C11.4997 7.81172 11.5807 7.69866 11.637 7.61912C11.6651 7.57933 11.6871 7.54788 11.7023 7.52617L11.7197 7.50106L11.7243 7.49429L11.7262 7.49155C11.8824 7.2638 11.8243 6.95258 11.5966 6.79643C11.3688 6.64028 11.0575 6.69851 10.9013 6.92626L10.9005 6.92745L10.8968 6.9328L10.8815 6.95495C10.8678 6.97464 10.8473 7.00393 10.8207 7.04143C10.7676 7.11646 10.6904 7.22422 10.5949 7.35376C10.4034 7.61347 10.1406 7.95778 9.85269 8.30036C9.56247 8.64565 9.25744 8.97628 8.98131 9.21633C8.84302 9.33654 8.72362 9.42376 8.62666 9.47854C8.5518 9.52084 8.51153 9.53167 8.5003 9.53441C8.48907 9.53167 8.44877 9.52083 8.37382 9.4785C8.2768 9.42371 8.15733 9.33647 8.01895 9.21624C7.74266 8.97617 7.43742 8.64553 7.14699 8.30023C6.85884 7.95764 6.59583 7.61332 6.4042 7.3536C6.30862 7.22406 6.23135 7.1163 6.1782 7.04127C6.15164 7.00377 6.13113 6.97448 6.11742 6.95479L6.10204 6.93264L6.09834 6.92728L6.09738 6.92588Z" fill="#738394"/>
<path fill-rule="evenodd" clip-rule="evenodd" d="M8.49998 0.37793C5.65996 0.37793 3.60742 0.844961 2.28722 2.16516C0.967031 3.48535 0.5 5.5379 0.5 8.37793C0.5 11.218 0.967031 13.2705 2.28722 14.5907C3.60742 15.9109 5.65996 16.3779 8.49998 16.3779C11.34 16.3779 13.3926 15.9109 14.7128 14.5907C16.033 13.2705 16.5 11.218 16.5 8.37793C16.5 5.5379 16.033 3.48535 14.7128 2.16515C13.3926 0.844961 11.34 0.37793 8.49998 0.37793ZM2.99433 2.87226C1.97067 3.89592 1.5 5.59337 1.5 8.37793C1.5 11.1625 1.97067 12.86 2.99433 13.8836C4.01799 14.9073 5.71543 15.3779 8.49998 15.3779C11.2846 15.3779 12.982 14.9073 14.0057 13.8836C15.0293 12.86 15.5 11.1625 15.5 8.37793C15.5 5.59337 15.0293 3.89592 14.0057 2.87226C12.982 1.8486 11.2846 1.37793 8.49998 1.37793C5.71543 1.37793 4.01799 1.8486 2.99433 2.87226Z" fill="#4F5E75"/>
</svg>
