<?xml version="1.0" encoding="utf-8"?>
<!-- Generator: Adobe Illustrator 21.1.0, SVG Export Plug-In . SVG Version: 6.00 Build 0)  -->
<svg version="1.1" id="Layer_1" xmlns="http://www.w3.org/2000/svg" xmlns:xlink="http://www.w3.org/1999/xlink" x="0px" y="0px" viewBox="0 0 612 650.3" style="enable-background:new 0 0 612 650.3;" xml:space="preserve">
    <style type="text/css">
    .st0 {
        fill: none;
        stroke: #4D4D4D;
        stroke-width: 8;
        stroke-miterlimit: 10;
    }
    
    .st1 {
        fill: none;
    }
    
    .st2 {
        fill: #999999;
    }
    
    .st3 {
        font-family: 'Arial';
    }
    
    .st4 {
        font-size: 7px;
    }
    
    .st5 {
        fill: #4D4D4D;
    }
    
    .st6 {
        fill: #F2F2F2;
    }
    
    .st7 {
        fill: none;
        stroke: #4D4D4D;
        stroke-width: 0.25;
        stroke-miterlimit: 10;
    }
    
    .st8 {
        fill: none;
        stroke: #B3B3B3;
        stroke-width: 0.25;
        stroke-miterlimit: 10;
    }
    
    .st9 {
        fill: #808080;
    }
    
    .st10 {
        fill: none;
        stroke: #E6E6E6;
        stroke-width: 0.5;
        stroke-miterlimit: 10;
    }
    
    .st11 {
        fill: none;
        stroke: #E6E6E6;
        stroke-width: 0.5;
        stroke-miterlimit: 10;
        stroke-dasharray: 1.984, 1.984;
    }
    
    .st12 {
        fill: none;
        stroke: #E6E6E6;
        stroke-width: 0.5;
        stroke-miterlimit: 10;
        stroke-dasharray: 2.0175, 2.0175;
    }
    
    .st13 {
        fill: none;
        stroke: #4D4D4D;
        stroke-width: 0.5;
        stroke-miterlimit: 10;
    }
    
    .st14 {
        fill: none;
        stroke: #808080;
        stroke-width: 0.25;
        stroke-miterlimit: 10;
    }
    
    .st15 {
        font-size: 9px;
    }
    
    .st16 {
        font-family: 'Arial';
        font-weight: 800;
        text-align: center;
    }
    
    .st17 {
        font-size: 7px;
    }
    
    .st18 {
        letter-spacing: 2px;
    }
    
    .st19 {
        font-family: 'ArialMT';
    }
    
    .st20 {
        letter-spacing: 2px;
    }
    </style>
    <line class="st0" x1="39" y1="506.3" x2="95.7" y2="506.3" />
    <line class="st0" x1="39" y1="486.9" x2="125.9" y2="486.9" />
    <line class="st0" x1="39" y1="467.5" x2="150.2" y2="467.5" />
    <rect x="240.8" y="467.2" class="st1" width="79.8" height="49.8" />
    <text transform="matrix(1 0 0 1 240.7836 472.1842)">
        <tspan x="0" y="0" class="st2 st3 st4">GOLF TEAM </tspan>
        <tspan x="0" y="9" class="st2 st3 st4">MEMBER AT </tspan>
        <tspan x="0" y="18" class="st2 st3 st4">UNIVERSITY OF MOUNT </tspan>
        <tspan x="0" y="27" class="st2 st3 st4">OLIVE </tspan>
        <tspan x="0" y="36" class="st2 st3 st4">(NCAA DIVISION II)</tspan>
    </text>
    <rect x="245.7" y="538.8" class="st1" width="83.9" height="84.2" />
    <text transform="matrix(1 0 0 1 245.6996 543.8317)">
        <tspan x="0" y="0" class="st2 st3 st4">EXPERT</tspan>
        <tspan x="0" y="19" class="st2 st3 st4">ADVANCED</tspan>
        <tspan x="0" y="38" class="st2 st3 st4">PROFICIENT</tspan>
        <tspan x="0" y="57" class="st2 st3 st4">SKILLED</tspan>
        <tspan x="0" y="76" class="st2 st3 st4">ROOKIE</tspan>
    </text>
    <rect x="8.8" y="464.8" class="st1" width="26.2" height="50" />
    <text transform="matrix(1 0 0 1 21.6325 469.8369)">
        <tspan x="0" y="0" class="st5 st3 st4">ESP</tspan>
        <tspan x="-1.3" y="19.5" class="st5 st3 st4">ENG</tspan>
        <tspan x="-1.3" y="39" class="st5 st3 st4">POR</tspan>
    </text>
    <rect x="30.1" y="627.7" class="st1" width="12.1" height="16.3" />
    <text transform="matrix(1 0 0 1 32.9343 632.6885)" class="st5 st3 st4">AI </text>
    <rect x="53.7" y="627.7" class="st1" width="12.1" height="16.3" />
    <text transform="matrix(1 0 0 1 55.2546 632.6885)" class="st5 st3 st4">PS </text>
    <rect x="77.4" y="627.7" class="st1" width="12.1" height="6.5" />
    <text transform="matrix(1 0 0 1 80.1033 632.6885)" class="st5 st3 st4">ID</text>
    <rect x="99.2" y="627.7" class="st1" width="15.9" height="16.3" />
    <text transform="matrix(1 0 0 1 101.4517 632.6885)" class="st5 st3 st4">DW </text>
    <rect x="122.9" y="627.7" class="st1" width="15.9" height="6.5" />
    <text transform="matrix(1 0 0 1 126.0435 632.6885)" class="st5 st3 st4">BR </text>
    <rect x="146.6" y="627.7" class="st1" width="15.9" height="6.5" />
    <text transform="matrix(1 0 0 1 150.1148 632.6885)" class="st5 st3 st4">AE </text>
    <rect x="171.2" y="627.7" class="st1" width="19.7" height="6.5" />
    <text transform="matrix(1 0 0 1 173.0345 632.6885)" class="st5 st3 st4">.CSS </text>
    <rect x="203.4" y="627.7" class="st1" width="25.7" height="6.5" />
    <text transform="matrix(1 0 0 1 205.7703 632.6885)" class="st5 st3 st4">.HTML</text>
    <path id="Email" class="st5" d="M391.7,54.9h-15.8c-0.2,0-0.4,0.2-0.4,0.4v10.4c0,0.2,0.2,0.4,0.4,0.4h15.8c0.2,0,0.4-0.2,0.4-0.4
	V55.3C392.1,55.1,391.9,54.9,391.7,54.9z M390.7,55.7l-6.9,6.9l-6.9-6.9H390.7z M376.3,56.3l4.2,4.2l-4.2,4.2V56.3z M376.9,65.3
	l4.2-4.2l2.4,2.4c0.2,0.2,0.4,0.2,0.6,0l2.4-2.4l4.2,4.2H376.9z M391.3,64.7l-4.2-4.2l4.2-4.2V64.7z" />
    <path id="Phone" class="st5" d="M387.1,71.7h-6.7c-0.7,0-1.2,0.6-1.2,1.2v13.7c0,0.7,0.6,1.2,1.2,1.2h6.7c0.7,0,1.2-0.6,1.2-1.2
	V72.9C388.4,72.2,387.8,71.7,387.1,71.7z M387.5,86.6c0,0.2-0.2,0.4-0.4,0.4h-6.7c-0.2,0-0.4-0.2-0.4-0.4v-0.8h7.5V86.6z M387.5,85
	h-7.5V74.6h7.5V85z M387.5,73.7h-7.5v-0.8c0-0.2,0.2-0.4,0.4-0.4h6.7c0.2,0,0.4,0.2,0.4,0.4V73.7z" />
    <g>
        <path class="st5" d="M45,374.3l-0.4,0.4c-0.5-0.4-1-0.6-1.6-0.6c-1.4,0-2.5,0.9-2.5,3.3c0,2.3,1.1,3.3,2.5,3.3
		c0.8,0,1.3-0.3,1.7-0.6l0.4,0.4c-0.5,0.4-1.2,0.8-2.1,0.8c-1.8,0-3.2-1.4-3.2-3.9c0-2.6,1.4-3.9,3.2-3.9
		C43.9,373.6,44.5,373.8,45,374.3z" />
        <path class="st5" d="M49.7,378.5h-1.3v2.7h-0.7V375h1.7c1.7,0,2.5,0.6,2.5,1.7c0,0.9-0.5,1.4-1.5,1.6l1.9,2.8h-0.8L49.7,378.5z
		 M49.5,378c1.1,0,1.7-0.4,1.7-1.2c0-0.8-0.5-1.2-1.8-1.2h-1v2.4H49.5z" />
        <path class="st5" d="M58.4,375.6h-2.8v2.2H58v0.5h-2.4v2.4h2.9v0.5h-3.6V375h3.5L58.4,375.6z" />
        <path class="st5" d="M64.4,379.6h-2.8l-0.6,1.7h-0.7l2.3-6.2h0.8l2.3,6.2H65L64.4,379.6z M64.2,379l-1.2-3.5l-1.2,3.5H64.2z" />
        <path class="st5" d="M71.2,375.6h-2v5.6h-0.7v-5.6h-2V375h4.7L71.2,375.6z" />
        <path class="st5" d="M74.4,381.2h-0.7V375h0.7V381.2z" />
        <path class="st5" d="M79.9,381.2h-0.8l-2.2-6.2h0.7l1.9,5.6l1.9-5.6h0.7L79.9,381.2z" />
        <path class="st5" d="M88,375.6h-2.8v2.2h2.4v0.5h-2.4v2.4h2.9v0.5h-3.6V375h3.5L88,375.6z" />
        <path class="st5" d="M99.4,375.2c0,0.9-0.7,1.4-1.8,2l2.4,2.1c0.3-0.6,0.6-1.3,0.8-2.1l0.6,0.2c-0.3,0.9-0.6,1.7-1,2.3l1.4,1.3
		l-0.5,0.4l-1.3-1.2c-0.6,0.7-1.4,1.2-2.6,1.2c-1.4,0-2.4-0.8-2.4-2c0-1,0.6-1.6,1.7-2.2c-0.8-0.7-1.2-1.1-1.2-1.9
		c0-0.9,0.8-1.7,1.9-1.7C98.6,373.6,99.4,374.2,99.4,375.2z M95.7,379.3c0,0.9,0.8,1.5,1.8,1.5c1,0,1.6-0.4,2.1-1l-2.5-2.3
		C96.2,378,95.7,378.6,95.7,379.3z M96.2,375.2c0,0.6,0.2,0.9,1,1.6c1-0.5,1.5-1,1.5-1.7c0-0.7-0.5-1.2-1.3-1.2
		C96.6,374.1,96.2,374.6,96.2,375.2z" />
        <path class="st5" d="M113.2,375.5l-0.4,0.4c-0.5-0.3-0.8-0.5-1.4-0.5c-1.2,0-2.1,0.7-2.1,2.6c0,1.8,0.9,2.7,2.1,2.7
		c0.7,0,1.1-0.2,1.5-0.5l0.3,0.4c-0.4,0.4-1,0.6-1.9,0.6c-1.6,0-2.8-1.1-2.8-3.2s1.3-3.2,2.8-3.2
		C112.2,374.9,112.7,375.2,113.2,375.5z" />
        <path class="st5" d="M117.8,378.5h-1.3v2.7h-0.7V375h1.7c1.7,0,2.5,0.6,2.5,1.7c0,0.9-0.5,1.4-1.5,1.6l1.9,2.8h-0.8L117.8,378.5z
		 M117.6,378c1.1,0,1.7-0.4,1.7-1.2c0-0.8-0.5-1.2-1.8-1.2h-1v2.4H117.6z" />
        <path class="st5" d="M123.7,381.2h-0.7V375h0.7V381.2z" />
        <path class="st5" d="M130.9,375.6h-2v5.6h-0.7v-5.6h-2V375h4.7L130.9,375.6z" />
        <path class="st5" d="M134,381.2h-0.7V375h0.7V381.2z" />
        <path class="st5" d="M141.7,375.5l-0.4,0.4c-0.5-0.3-0.8-0.5-1.4-0.5c-1.2,0-2.1,0.7-2.1,2.6c0,1.8,0.9,2.7,2.1,2.7
		c0.7,0,1.1-0.2,1.5-0.5l0.3,0.4c-0.4,0.4-1,0.6-1.9,0.6c-1.6,0-2.8-1.1-2.8-3.2s1.3-3.2,2.8-3.2
		C140.7,374.9,141.2,375.2,141.7,375.5z" />
        <path class="st5" d="M147.4,379.6h-2.8l-0.6,1.7h-0.7l2.3-6.2h0.8l2.3,6.2h-0.7L147.4,379.6z M147.2,379l-1.2-3.5l-1.2,3.5H147.2z" />
        <path class="st5" d="M151.8,380.7h2.9l-0.1,0.6h-3.4V375h0.7V380.7z" />
        <path class="st5" d="M165,375.6h-2v5.6h-0.7v-5.6h-2V375h4.7L165,375.6z" />
        <path class="st5" d="M172.1,381.2h-0.7v-3h-3.2v3h-0.7V375h0.7v2.7h3.2V375h0.7V381.2z" />
        <path class="st5" d="M176.3,381.2h-0.7V375h0.7V381.2z" />
        <path class="st5" d="M184.5,381.2h-0.9l-3.1-5.6c0,0.5,0.1,1.1,0.1,2.3v3.3h-0.6V375h0.9l3.2,5.6c0-0.3-0.1-1.1-0.1-2V375h0.6
		V381.2z" />
        <path class="st5" d="M188.8,381.2h-0.7V375h0.7V381.2z M189.6,377.9l3,3.3h-0.8l-2.9-3.3l2.8-2.9h0.8L189.6,377.9z" />
        <path class="st5" d="M198.3,375.6h-2.8v2.2h2.4v0.5h-2.4v2.4h2.9v0.5h-3.6V375h3.5L198.3,375.6z" />
        <path class="st5" d="M203.3,378.5H202v2.7h-0.7V375h1.7c1.7,0,2.5,0.6,2.5,1.7c0,0.9-0.5,1.4-1.5,1.6l1.9,2.8H205L203.3,378.5z
		 M203,378c1.1,0,1.7-0.4,1.7-1.2c0-0.8-0.5-1.2-1.8-1.2h-1v2.4H203z" />
        <path class="st5" d="M234.6,375.9c0,1.7-1.2,2.3-3,2.3h-1.1v2.9h-0.7v-7.5h1.9C233.5,373.7,234.6,374.4,234.6,375.9z M233.8,376
		c0-1.3-0.8-1.7-2.2-1.7h-1.2v3.5h1.1C232.9,377.7,233.8,377.3,233.8,376z" />
        <path class="st5" d="M239.4,378.5h-1.3v2.7h-0.7V375h1.7c1.7,0,2.5,0.6,2.5,1.7c0,0.9-0.5,1.4-1.5,1.6l1.9,2.8h-0.8L239.4,378.5z
		 M239.1,378c1.1,0,1.7-0.4,1.7-1.2c0-0.8-0.5-1.2-1.8-1.2h-1v2.4H239.1z" />
        <path class="st5" d="M249.8,378.1c0,2-1.1,3.2-2.8,3.2c-1.7,0-2.8-1.1-2.8-3.2c0-2,1.2-3.2,2.8-3.2
		C248.6,374.9,249.8,376.1,249.8,378.1z M244.8,378.1c0,1.8,0.9,2.7,2.1,2.7c1.3,0,2.1-0.8,2.1-2.7s-0.8-2.7-2.1-2.7
		C245.7,375.5,244.8,376.3,244.8,378.1z" />
        <path class="st5" d="M257.2,379.5c0,1.2-1,1.7-2.5,1.7h-1.9V375h1.6c1.6,0,2.5,0.5,2.5,1.6c0,0.8-0.5,1.2-1.2,1.3
		C256.5,378,257.2,378.5,257.2,379.5z M253.5,375.6v2.2h1.3c0.8,0,1.4-0.4,1.4-1.1c0-0.8-0.6-1.1-1.8-1.1H253.5z M256.5,379.5
		c0-0.9-0.7-1.3-1.6-1.3h-1.4v2.5h1.3C255.8,380.7,256.5,380.4,256.5,379.5z" />
        <path class="st5" d="M260.8,380.7h2.9l-0.1,0.6h-3.4V375h0.7V380.7z" />
        <path class="st5" d="M269.7,375.6h-2.8v2.2h2.4v0.5h-2.4v2.4h2.9v0.5h-3.6V375h3.5L269.7,375.6z" />
        <path class="st5" d="M278.6,381.2h-0.6l-0.3-2.9c-0.1-1.2-0.2-1.9-0.2-2.7l-1.7,4.9H275l-1.7-4.9c0,0.7-0.1,1.8-0.2,2.7l-0.3,2.9
		h-0.6l0.6-6.2h0.9l1.7,4.8l1.7-4.8h0.9L278.6,381.2z" />
        <path class="st5" d="M289.6,375.6l-0.4,0.4c-0.5-0.4-1-0.6-1.7-0.6c-0.8,0-1.4,0.4-1.4,1c0,0.6,0.4,0.9,1.6,1.2
		c1.2,0.3,2.1,0.7,2.1,1.8c0,1.1-0.9,1.8-2.3,1.8c-1,0-1.7-0.3-2.3-0.8l0.4-0.4c0.5,0.4,1.1,0.7,1.9,0.7c1,0,1.6-0.4,1.6-1.3
		c0-0.7-0.4-1-1.6-1.4c-1.4-0.4-2-0.8-2-1.7c0-0.9,0.8-1.6,2.1-1.6C288.5,374.9,289.1,375.2,289.6,375.6z" />
        <path class="st5" d="M297.8,378.1c0,2-1.1,3.2-2.8,3.2c-1.7,0-2.8-1.1-2.8-3.2c0-2,1.2-3.2,2.8-3.2
		C296.7,374.9,297.8,376.1,297.8,378.1z M292.9,378.1c0,1.8,0.9,2.7,2.1,2.7c1.3,0,2.1-0.8,2.1-2.7s-0.8-2.7-2.1-2.7
		C293.7,375.5,292.9,376.3,292.9,378.1z" />
        <path class="st5" d="M301.6,380.7h2.9l-0.1,0.6h-3.4V375h0.7V380.7z" />
        <path class="st5" d="M308.9,381.2h-0.8l-2.2-6.2h0.7l1.9,5.6l1.9-5.6h0.7L308.9,381.2z" />
        <path class="st5" d="M317,375.6h-2.8v2.2h2.4v0.5h-2.4v2.4h2.9v0.5h-3.6V375h3.5L317,375.6z" />
        <path class="st5" d="M322,378.5h-1.3v2.7H320V375h1.7c1.7,0,2.5,0.6,2.5,1.7c0,0.9-0.5,1.4-1.5,1.6l1.9,2.8h-0.8L322,378.5z
		 M321.8,378c1.1,0,1.7-0.4,1.7-1.2c0-0.8-0.5-1.2-1.8-1.2h-1v2.4H321.8z" />
        <path class="st5" d="M44.3,391.8H41v2.8h2.8v0.6H41v3.1h3.4v0.6h-4.1v-7.5h4L44.3,391.8z" />
        <path class="st5" d="M51.5,398.8h-0.9l-3.1-5.6c0,0.5,0.1,1.1,0.1,2.3v3.3h-0.6v-6.2h0.9l3.2,5.6c0-0.3-0.1-1.1-0.1-2v-3.6h0.6
		V398.8z" />
        <path class="st5" d="M55.4,398c0,1.2-0.5,1.6-1.6,2l-0.2-0.5c0.9-0.4,1.1-0.7,1.1-1.5v-5.3h0.7V398z" />
        <path class="st5" d="M63.8,395.7c0,2-1.1,3.2-2.8,3.2c-1.7,0-2.8-1.1-2.8-3.2c0-2,1.2-3.2,2.8-3.2
		C62.6,392.5,63.8,393.7,63.8,395.7z M58.8,395.7c0,1.8,0.9,2.7,2.1,2.7c1.3,0,2.1-0.8,2.1-2.7s-0.8-2.7-2.1-2.7
		C59.7,393.1,58.8,393.9,58.8,395.7z" />
        <path class="st5" d="M68.2,396.4v2.4h-0.7v-2.4l-2.2-3.8h0.7l1.8,3.2l1.8-3.2h0.7L68.2,396.4z" />
        <path class="st5" d="M81.6,398.8h-0.8l-1.4-5.5l-1.5,5.5H77l-1.5-6.2h0.7l1.3,5.6l1.5-5.6h0.7l1.5,5.6l1.3-5.6h0.6L81.6,398.8z" />
        <path class="st5" d="M90.6,395.7c0,2-1.1,3.2-2.8,3.2c-1.7,0-2.8-1.1-2.8-3.2c0-2,1.2-3.2,2.8-3.2
		C89.4,392.5,90.6,393.7,90.6,395.7z M85.6,395.7c0,1.8,0.9,2.7,2.1,2.7c1.3,0,2.1-0.8,2.1-2.7s-0.8-2.7-2.1-2.7
		C86.5,393.1,85.6,393.9,85.6,395.7z" />
        <path class="st5" d="M95.3,396.1H94v2.7h-0.7v-6.2H95c1.7,0,2.5,0.6,2.5,1.7c0,0.9-0.5,1.4-1.5,1.6l1.9,2.8h-0.8L95.3,396.1z
		 M95.1,395.6c1.1,0,1.7-0.4,1.7-1.2c0-0.8-0.5-1.2-1.8-1.2h-1v2.4H95.1z" />
        <path class="st5" d="M100.9,398.8h-0.7v-6.2h0.7V398.8z M101.7,395.5l3,3.3h-0.8l-2.9-3.3l2.8-2.9h0.8L101.7,395.5z" />
        <path class="st5" d="M107.3,398.8h-0.7v-6.2h0.7V398.8z" />
        <path class="st5" d="M115.2,398.8h-0.9l-3.1-5.6c0,0.5,0.1,1.1,0.1,2.3v3.3h-0.6v-6.2h0.9l3.2,5.6c0-0.3-0.1-1.1-0.1-2v-3.6h0.6
		V398.8z" />
        <path class="st5" d="M122.7,393.2l-0.4,0.4c-0.5-0.3-0.9-0.5-1.5-0.5c-1.1,0-2.2,0.7-2.2,2.6c0,1.9,0.8,2.7,2.2,2.7
		c0.6,0,1-0.1,1.4-0.3V396h-1.3l-0.1-0.5h2.1v2.9c-0.6,0.3-1.3,0.5-2.1,0.5c-1.7,0-2.8-1.1-2.8-3.2c0-2.1,1.4-3.2,2.9-3.2
		C121.6,392.5,122.2,392.8,122.7,393.2z" />
        <path class="st5" d="M130.2,398.8h-0.7v-6.2h0.7V398.8z" />
        <path class="st5" d="M138,398.8h-0.9l-3.1-5.6c0,0.5,0.1,1.1,0.1,2.3v3.3h-0.6v-6.2h0.9l3.2,5.6c0-0.3-0.1-1.1-0.1-2v-3.6h0.6
		V398.8z" />
        <path class="st5" d="M148.8,393.2h-2v5.6h-0.7v-5.6h-2v-0.6h4.7L148.8,393.2z" />
        <path class="st5" d="M154.4,393.2h-2.8v2.2h2.4v0.5h-2.4v2.4h2.9v0.5H151v-6.2h3.5L154.4,393.2z" />
        <path class="st5" d="M160.1,397.2h-2.8l-0.6,1.7H156l2.3-6.2h0.8l2.3,6.2h-0.7L160.1,397.2z M159.9,396.6l-1.2-3.5l-1.2,3.5H159.9z
		" />
        <path class="st5" d="M169.4,398.8h-0.6l-0.3-2.9c-0.1-1.2-0.2-1.9-0.2-2.7l-1.7,4.9h-0.6l-1.7-4.9c0,0.7-0.1,1.8-0.2,2.7l-0.3,2.9
		H163l0.6-6.2h0.9l1.7,4.8l1.7-4.8h0.9L169.4,398.8z" />
        <path class="st5" d="M175.9,393.2l-0.4,0.4c-0.5-0.4-1-0.6-1.7-0.6c-0.8,0-1.4,0.4-1.4,1c0,0.6,0.4,0.9,1.6,1.2
		c1.2,0.3,2.1,0.7,2.1,1.8c0,1.1-0.9,1.8-2.3,1.8c-1,0-1.7-0.3-2.3-0.8l0.4-0.4c0.5,0.4,1.1,0.7,1.9,0.7c1,0,1.6-0.4,1.6-1.3
		c0-0.7-0.4-1-1.6-1.4c-1.4-0.4-2-0.8-2-1.7c0-0.9,0.8-1.6,2.1-1.6C174.8,392.5,175.4,392.8,175.9,393.2z" />
        <path class="st5" d="M209.9,396.8h-3.3l-0.7,2.1h-0.7l2.7-7.5h0.9l2.6,7.5h-0.7L209.9,396.8z M209.8,396.2l-1.5-4.4l-1.5,4.4H209.8
		z" />
        <path class="st5" d="M217.1,393.2h-2v5.6h-0.7v-5.6h-2v-0.6h4.7L217.1,393.2z" />
        <path class="st5" d="M222.8,393.2h-2v5.6h-0.7v-5.6h-2v-0.6h4.7L222.8,393.2z" />
        <path class="st5" d="M228.5,393.2h-2.8v2.2h2.4v0.5h-2.4v2.4h2.9v0.5H225v-6.2h3.5L228.5,393.2z" />
        <path class="st5" d="M235.7,398.8h-0.9l-3.1-5.6c0,0.5,0.1,1.1,0.1,2.3v3.3h-0.6v-6.2h0.9l3.2,5.6c0-0.3-0.1-1.1-0.1-2v-3.6h0.6
		V398.8z" />
        <path class="st5" d="M242.5,393.2h-2v5.6h-0.7v-5.6h-2v-0.6h4.7L242.5,393.2z" />
        <path class="st5" d="M245.4,398.8h-0.7v-6.2h0.7V398.8z" />
        <path class="st5" d="M253.7,395.7c0,2-1.1,3.2-2.8,3.2c-1.7,0-2.8-1.1-2.8-3.2c0-2,1.2-3.2,2.8-3.2
		C252.6,392.5,253.7,393.7,253.7,395.7z M248.8,395.7c0,1.8,0.9,2.7,2.1,2.7c1.3,0,2.1-0.8,2.1-2.7s-0.8-2.7-2.1-2.7
		C249.7,393.1,248.8,393.9,248.8,395.7z" />
        <path class="st5" d="M261.1,398.8h-0.9l-3.1-5.6c0,0.5,0.1,1.1,0.1,2.3v3.3h-0.6v-6.2h0.9l3.2,5.6c0-0.3-0.1-1.1-0.1-2v-3.6h0.6
		V398.8z" />
        <path class="st5" d="M271.8,393.2h-2v5.6h-0.7v-5.6h-2v-0.6h4.7L271.8,393.2z" />
        <path class="st5" d="M278.8,395.7c0,2-1.1,3.2-2.8,3.2c-1.7,0-2.8-1.1-2.8-3.2c0-2,1.2-3.2,2.8-3.2
		C277.6,392.5,278.8,393.7,278.8,395.7z M273.8,395.7c0,1.8,0.9,2.7,2.1,2.7c1.3,0,2.1-0.8,2.1-2.7s-0.8-2.7-2.1-2.7
		C274.7,393.1,273.8,393.9,273.8,395.7z" />
        <path class="st5" d="M290.1,395.7c0,2.6-1.7,3.1-3.1,3.1h-1.5v-6.2h1.4C288.5,392.6,290.1,393.1,290.1,395.7z M286.1,393.2v5.1h0.9
		c1.2,0,2.4-0.5,2.4-2.6c0-2.2-1.3-2.5-2.4-2.5H286.1z" />
        <path class="st5" d="M296.3,393.2h-2.8v2.2h2.4v0.5h-2.4v2.4h2.9v0.5h-3.6v-6.2h3.5L296.3,393.2z" />
        <path class="st5" d="M302.4,393.2h-2v5.6h-0.7v-5.6h-2v-0.6h4.7L302.4,393.2z" />
        <path class="st5" d="M307,397.2h-2.8l-0.6,1.7h-0.7l2.3-6.2h0.8l2.3,6.2h-0.7L307,397.2z M306.8,396.6l-1.2-3.5l-1.2,3.5H306.8z" />
        <path class="st5" d="M311.1,398.8h-0.7v-6.2h0.7V398.8z" />
        <path class="st5" d="M315,398.3h2.9l-0.1,0.6h-3.4v-6.2h0.7V398.3z" />
        <path class="st5" d="M323.7,393.2l-0.4,0.4c-0.5-0.4-1-0.6-1.7-0.6c-0.8,0-1.4,0.4-1.4,1c0,0.6,0.4,0.9,1.6,1.2
		c1.2,0.3,2.1,0.7,2.1,1.8c0,1.1-0.9,1.8-2.3,1.8c-1,0-1.7-0.3-2.3-0.8l0.4-0.4c0.5,0.4,1.1,0.7,1.9,0.7c1,0,1.6-0.4,1.6-1.3
		c0-0.7-0.4-1-1.6-1.4c-1.4-0.4-2-0.8-2-1.7c0-0.9,0.8-1.6,2.1-1.6C322.6,392.5,323.2,392.8,323.7,393.2z" />
        <path class="st5" d="M47.2,416.4h-0.7l-0.4-3.6c-0.1-1.2-0.3-2.6-0.3-3.3l-2,6h-0.7l-2.1-6c0,0.7-0.2,2.1-0.3,3.3l-0.3,3.6h-0.7
		l0.8-7.5h1l2,5.9l1.9-5.9h1L47.2,416.4z" />
        <path class="st5" d="M53.7,414.8h-2.8l-0.6,1.7h-0.7l2.3-6.2h0.8l2.3,6.2h-0.7L53.7,414.8z M53.5,414.2l-1.2-3.5l-1.2,3.5H53.5z" />
        <path class="st5" d="M62.4,416.4h-0.9l-3.1-5.6c0,0.5,0.1,1.1,0.1,2.3v3.3h-0.6v-6.2h0.9l3.2,5.6c0-0.3-0.1-1.1-0.1-2v-3.6h0.6
		V416.4z" />
        <path class="st5" d="M69.2,414.8h-2.8l-0.6,1.7h-0.7l2.3-6.2h0.8l2.3,6.2h-0.7L69.2,414.8z M69,414.2l-1.2-3.5l-1.2,3.5H69z" />
        <path class="st5" d="M77.2,410.8l-0.4,0.4c-0.5-0.3-0.9-0.5-1.5-0.5c-1.1,0-2.2,0.7-2.2,2.6c0,1.9,0.8,2.7,2.2,2.7
		c0.6,0,1-0.1,1.4-0.3v-2.1h-1.3l-0.1-0.5h2.1v2.9c-0.6,0.3-1.3,0.5-2.1,0.5c-1.7,0-2.8-1.1-2.8-3.2c0-2.1,1.4-3.2,2.9-3.2
		C76.1,410.1,76.7,410.4,77.2,410.8z" />
        <path class="st5" d="M84.1,410.8h-2.8v2.2h2.4v0.5h-2.4v2.4h2.9v0.5h-3.6v-6.2h3.5L84.1,410.8z" />
        <path class="st5" d="M95.5,410.8l-0.4,0.4c-0.5-0.4-1-0.6-1.7-0.6c-0.8,0-1.4,0.4-1.4,1c0,0.6,0.4,0.9,1.6,1.2
		c1.2,0.3,2.1,0.7,2.1,1.8c0,1.1-0.9,1.8-2.3,1.8c-1,0-1.7-0.3-2.3-0.8l0.4-0.4c0.5,0.4,1.1,0.7,1.9,0.7c1,0,1.6-0.4,1.6-1.3
		c0-0.7-0.4-1-1.6-1.4c-1.4-0.4-2-0.8-2-1.7c0-0.9,0.8-1.6,2.1-1.6C94.3,410.1,94.9,410.4,95.5,410.8z" />
        <path class="st5" d="M102.3,410.8h-2v5.6h-0.7v-5.6h-2v-0.6h4.7L102.3,410.8z" />
        <path class="st5" d="M107,413.7h-1.3v2.7H105v-6.2h1.7c1.7,0,2.5,0.6,2.5,1.7c0,0.9-0.5,1.4-1.5,1.6l1.9,2.8h-0.8L107,413.7z
		 M106.8,413.2c1.1,0,1.7-0.4,1.7-1.2c0-0.8-0.5-1.2-1.8-1.2h-1v2.4H106.8z" />
        <path class="st5" d="M116,410.8h-2.8v2.2h2.4v0.5h-2.4v2.4h2.9v0.5h-3.6v-6.2h3.5L116,410.8z" />
        <path class="st5" d="M122.8,410.8l-0.4,0.4c-0.5-0.4-1-0.6-1.7-0.6c-0.8,0-1.4,0.4-1.4,1c0,0.6,0.4,0.9,1.6,1.2
		c1.2,0.3,2.1,0.7,2.1,1.8c0,1.1-0.9,1.8-2.3,1.8c-1,0-1.7-0.3-2.3-0.8l0.4-0.4c0.5,0.4,1.1,0.7,1.9,0.7c1,0,1.6-0.4,1.6-1.3
		c0-0.7-0.4-1-1.6-1.4c-1.4-0.4-2-0.8-2-1.7c0-0.9,0.8-1.6,2.1-1.6C121.7,410.1,122.3,410.4,122.8,410.8z" />
        <path class="st5" d="M129.8,410.8l-0.4,0.4c-0.5-0.4-1-0.6-1.7-0.6c-0.8,0-1.4,0.4-1.4,1c0,0.6,0.4,0.9,1.6,1.2
		c1.2,0.3,2.1,0.7,2.1,1.8c0,1.1-0.9,1.8-2.3,1.8c-1,0-1.7-0.3-2.3-0.8l0.4-0.4c0.5,0.4,1.1,0.7,1.9,0.7c1,0,1.6-0.4,1.6-1.3
		c0-0.7-0.4-1-1.6-1.4c-1.4-0.4-2-0.8-2-1.7c0-0.9,0.8-1.6,2.1-1.6C128.7,410.1,129.2,410.4,129.8,410.8z" />
        <path class="st5" d="M141.8,410.4c0,0.9-0.7,1.4-1.8,2l2.4,2.1c0.3-0.6,0.6-1.3,0.8-2.1l0.6,0.2c-0.3,0.9-0.6,1.7-1,2.3l1.4,1.3
		l-0.5,0.4l-1.3-1.2c-0.6,0.7-1.4,1.2-2.6,1.2c-1.4,0-2.4-0.8-2.4-2c0-1,0.6-1.6,1.7-2.2c-0.8-0.7-1.2-1.1-1.2-1.9
		c0-0.9,0.8-1.7,1.9-1.7C141,408.8,141.8,409.4,141.8,410.4z M138.1,414.5c0,0.9,0.8,1.5,1.8,1.5c1,0,1.6-0.4,2.1-1l-2.5-2.3
		C138.6,413.2,138.1,413.8,138.1,414.5z M138.6,410.4c0,0.6,0.2,0.9,1,1.6c1-0.5,1.5-1,1.5-1.7c0-0.7-0.5-1.2-1.3-1.2
		C139.1,409.3,138.6,409.8,138.6,410.4z" />
        <path class="st5" d="M157.2,416.4h-0.8l-1.4-5.5l-1.5,5.5h-0.8l-1.5-6.2h0.7l1.3,5.6l1.5-5.6h0.7l1.5,5.6l1.3-5.6h0.6L157.2,416.4z
		" />
        <path class="st5" d="M166.8,413.3c0,2-1.1,3.2-2.8,3.2c-1.7,0-2.8-1.1-2.8-3.2c0-2,1.2-3.2,2.8-3.2
		C165.6,410.1,166.8,411.3,166.8,413.3z M161.8,413.3c0,1.8,0.9,2.7,2.1,2.7c1.3,0,2.1-0.8,2.1-2.7s-0.8-2.7-2.1-2.7
		C162.7,410.7,161.8,411.5,161.8,413.3z" />
        <path class="st5" d="M172.1,413.7h-1.3v2.7h-0.7v-6.2h1.7c1.7,0,2.5,0.6,2.5,1.7c0,0.9-0.5,1.4-1.5,1.6l1.9,2.8h-0.8L172.1,413.7z
		 M171.9,413.2c1.1,0,1.7-0.4,1.7-1.2c0-0.8-0.5-1.2-1.8-1.2h-1v2.4H171.9z" />
        <path class="st5" d="M178.3,416.4h-0.7v-6.2h0.7V416.4z M179.1,413.1l3,3.3h-0.8l-2.9-3.3l2.8-2.9h0.8L179.1,413.1z" />
        <path class="st5" d="M193.6,414.5c0,1.2-0.7,2-2.3,2c-1.5,0-2.3-0.8-2.3-2v-4.2h0.7v4.2c0,1,0.5,1.6,1.6,1.6c1.1,0,1.6-0.6,1.6-1.6
		v-4.2h0.7V414.5z" />
        <path class="st5" d="M201.9,416.4H201l-3.1-5.6c0,0.5,0.1,1.1,0.1,2.3v3.3h-0.6v-6.2h0.9l3.2,5.6c0-0.3-0.1-1.1-0.1-2v-3.6h0.6
		V416.4z" />
        <path class="st5" d="M210.4,413.3c0,2.6-1.7,3.1-3.1,3.1h-1.5v-6.2h1.4C208.8,410.2,210.4,410.7,210.4,413.3z M206.4,410.8v5.1h0.9
		c1.2,0,2.4-0.5,2.4-2.6c0-2.2-1.3-2.5-2.4-2.5H206.4z" />
        <path class="st5" d="M217.2,410.8h-2.8v2.2h2.4v0.5h-2.4v2.4h2.9v0.5h-3.6v-6.2h3.5L217.2,410.8z" />
        <path class="st5" d="M222.4,413.7h-1.3v2.7h-0.7v-6.2h1.7c1.7,0,2.5,0.6,2.5,1.7c0,0.9-0.5,1.4-1.5,1.6l1.9,2.8h-0.8L222.4,413.7z
		 M222.2,413.2c1.1,0,1.7-0.4,1.7-1.2c0-0.8-0.5-1.2-1.8-1.2h-1v2.4H222.2z" />
        <path class="st5" d="M236,410.8h-2v5.6h-0.7v-5.6h-2v-0.6h4.7L236,410.8z" />
        <path class="st5" d="M239.4,416.4h-0.7v-6.2h0.7V416.4z" />
        <path class="st5" d="M247.6,410.8l-0.4,0.4c-0.5-0.3-0.9-0.5-1.5-0.5c-1.1,0-2.2,0.7-2.2,2.6c0,1.9,0.8,2.7,2.2,2.7
		c0.6,0,1-0.1,1.4-0.3v-2.1h-1.3l-0.1-0.5h2.1v2.9c-0.6,0.3-1.3,0.5-2.1,0.5c-1.7,0-2.8-1.1-2.8-3.2c0-2.1,1.4-3.2,2.9-3.2
		C246.5,410.1,247,410.4,247.6,410.8z" />
        <path class="st5" d="M255.6,416.4h-0.7v-3h-3.2v3H251v-6.2h0.7v2.7h3.2v-2.7h0.7V416.4z" />
        <path class="st5" d="M263,410.8h-2v5.6h-0.7v-5.6h-2v-0.6h4.7L263,410.8z" />
        <path class="st5" d="M273.8,410.8h-2v5.6h-0.7v-5.6h-2v-0.6h4.7L273.8,410.8z" />
        <path class="st5" d="M277.3,416.4h-0.7v-6.2h0.7V416.4z" />
        <path class="st5" d="M287.1,416.4h-0.6l-0.3-2.9c-0.1-1.2-0.2-1.9-0.2-2.7l-1.7,4.9h-0.6l-1.7-4.9c0,0.7-0.1,1.8-0.2,2.7l-0.3,2.9
		h-0.6l0.6-6.2h0.9l1.7,4.8l1.7-4.8h0.9L287.1,416.4z" />
        <path class="st5" d="M294,410.8h-2.8v2.2h2.4v0.5h-2.4v2.4h2.9v0.5h-3.6v-6.2h3.5L294,410.8z" />
        <path class="st5" d="M297.9,415.9h2.9l-0.1,0.6h-3.4v-6.2h0.7V415.9z" />
        <path class="st5" d="M304.2,416.4h-0.7v-6.2h0.7V416.4z" />
        <path class="st5" d="M312.7,416.4h-0.9l-3.1-5.6c0,0.5,0.1,1.1,0.1,2.3v3.3h-0.6v-6.2h0.9l3.2,5.6c0-0.3-0.1-1.1-0.1-2v-3.6h0.6
		V416.4z" />
        <path class="st5" d="M320,410.8h-2.8v2.2h2.4v0.5h-2.4v2.4h2.9v0.5h-3.6v-6.2h3.5L320,410.8z" />
        <path class="st5" d="M326.8,410.8l-0.4,0.4c-0.5-0.4-1-0.6-1.7-0.6c-0.8,0-1.4,0.4-1.4,1c0,0.6,0.4,0.9,1.6,1.2
		c1.2,0.3,2.1,0.7,2.1,1.8c0,1.1-0.9,1.8-2.3,1.8c-1,0-1.7-0.3-2.3-0.8l0.4-0.4c0.5,0.4,1.1,0.7,1.9,0.7c1,0,1.6-0.4,1.6-1.3
		c0-0.7-0.4-1-1.6-1.4c-1.4-0.4-2-0.8-2-1.7c0-0.9,0.8-1.6,2.1-1.6C325.7,410.1,326.3,410.4,326.8,410.8z" />
        <path class="st5" d="M44.4,427.2l-0.4,0.4c-0.6-0.5-1.1-0.7-1.9-0.7c-1,0-1.6,0.5-1.6,1.3c0,0.8,0.4,1.1,1.9,1.5
		c1.4,0.4,2.3,0.9,2.3,2.2c0,1.3-1,2.2-2.6,2.2c-1.1,0-1.9-0.4-2.5-0.9l0.4-0.4c0.6,0.5,1.2,0.8,2.1,0.8c1.1,0,1.9-0.6,1.9-1.6
		c0-0.9-0.5-1.3-1.9-1.7c-1.6-0.5-2.3-1-2.3-2.1c0-1.1,0.9-1.8,2.3-1.8C43.2,426.4,43.8,426.7,44.4,427.2z" />
        <path class="st5" d="M52.8,428.4h-2v5.6h-0.7v-5.6h-2v-0.6h4.7L52.8,428.4z" />
        <path class="st5" d="M59,431.3h-1.3v2.7H57v-6.2h1.7c1.7,0,2.5,0.6,2.5,1.7c0,0.9-0.5,1.4-1.5,1.6l1.9,2.8h-0.8L59,431.3z
		 M58.8,430.8c1.1,0,1.7-0.4,1.7-1.2c0-0.8-0.5-1.2-1.8-1.2h-1v2.4H58.8z" />
        <path class="st5" d="M71.1,430.9c0,2-1.1,3.2-2.8,3.2c-1.7,0-2.8-1.1-2.8-3.2c0-2,1.2-3.2,2.8-3.2
		C69.9,427.7,71.1,428.9,71.1,430.9z M66.1,430.9c0,1.8,0.9,2.7,2.1,2.7c1.3,0,2.1-0.8,2.1-2.7s-0.8-2.7-2.1-2.7
		C67,428.3,66.1,429.1,66.1,430.9z" />
        <path class="st5" d="M80.4,434h-0.9l-3.1-5.6c0,0.5,0.1,1.1,0.1,2.3v3.3h-0.6v-6.2h0.9l3.2,5.6c0-0.3-0.1-1.1-0.1-2v-3.6h0.6V434z" />
        <path class="st5" d="M90,428.4l-0.4,0.4c-0.5-0.3-0.9-0.5-1.5-0.5c-1.1,0-2.2,0.7-2.2,2.6c0,1.9,0.8,2.7,2.2,2.7
		c0.6,0,1-0.1,1.4-0.3v-2.1h-1.3l-0.1-0.5h2.1v2.9c-0.6,0.3-1.3,0.5-2.1,0.5c-1.7,0-2.8-1.1-2.8-3.2c0-2.1,1.4-3.2,2.9-3.2
		C88.9,427.7,89.4,428,90,428.4z" />
        <path class="st5" d="M106.1,430.2c0,3.1-1.9,3.8-3.6,3.8h-1.7v-7.5h1.6C104.2,426.5,106.1,427.1,106.1,430.2z M101.5,427v6.4h1.1
		c1.4,0,2.8-0.6,2.8-3.3c0-2.8-1.5-3.2-2.9-3.2H101.5z" />
        <path class="st5" d="M112.8,431.3h-1.3v2.7h-0.7v-6.2h1.7c1.7,0,2.5,0.6,2.5,1.7c0,0.9-0.5,1.4-1.5,1.6l1.9,2.8h-0.8L112.8,431.3z
		 M112.6,430.8c1.1,0,1.7-0.4,1.7-1.2c0-0.8-0.5-1.2-1.8-1.2h-1v2.4H112.6z" />
        <path class="st5" d="M122.7,432.4h-2.8l-0.6,1.7h-0.7l2.3-6.2h0.8l2.3,6.2h-0.7L122.7,432.4z M122.6,431.8l-1.2-3.5l-1.2,3.5H122.6
		z" />
        <path class="st5" d="M133.1,434h-0.8l-1.4-5.5l-1.5,5.5h-0.8l-1.5-6.2h0.7l1.3,5.6l1.5-5.6h0.7l1.5,5.6l1.3-5.6h0.6L133.1,434z" />
        <path class="st5" d="M139.6,434H139v-6.2h0.7V434z" />
        <path class="st5" d="M149.5,434h-0.9l-3.1-5.6c0,0.5,0.1,1.1,0.1,2.3v3.3h-0.6v-6.2h0.9l3.2,5.6c0-0.3-0.1-1.1-0.1-2v-3.6h0.6V434z
		" />
        <path class="st5" d="M159.1,428.4l-0.4,0.4c-0.5-0.3-0.9-0.5-1.5-0.5c-1.1,0-2.2,0.7-2.2,2.6c0,1.9,0.8,2.7,2.2,2.7
		c0.6,0,1-0.1,1.4-0.3v-2.1h-1.3l-0.1-0.5h2.1v2.9c-0.6,0.3-1.3,0.5-2.1,0.5c-1.7,0-2.8-1.1-2.8-3.2c0-2.1,1.4-3.2,2.9-3.2
		C158,427.7,158.5,428,159.1,428.4z" />
        <path class="st5" d="M174,428c0,0.9-0.7,1.4-1.8,2l2.4,2.1c0.3-0.6,0.6-1.3,0.8-2.1l0.6,0.2c-0.3,0.9-0.6,1.7-1,2.3l1.4,1.3
		l-0.5,0.4l-1.3-1.2c-0.6,0.7-1.4,1.2-2.6,1.2c-1.4,0-2.4-0.8-2.4-2c0-1,0.6-1.6,1.7-2.2c-0.8-0.7-1.2-1.1-1.2-1.9
		c0-0.9,0.8-1.7,1.9-1.7C173.2,426.4,174,427,174,428z M170.3,432.1c0,0.9,0.8,1.5,1.8,1.5c1,0,1.6-0.4,2.1-1l-2.5-2.3
		C170.8,430.8,170.3,431.4,170.3,432.1z M170.8,428c0,0.6,0.2,0.9,1,1.6c1-0.5,1.5-1,1.5-1.7c0-0.7-0.5-1.2-1.3-1.2
		C171.3,426.9,170.8,427.4,170.8,428z" />
        <path class="st5" d="M191.8,427.1l-0.4,0.4c-0.5-0.4-1-0.6-1.6-0.6c-1.4,0-2.5,0.9-2.5,3.3c0,2.3,1.1,3.3,2.5,3.3
		c0.8,0,1.3-0.3,1.7-0.6l0.4,0.4c-0.5,0.4-1.2,0.8-2.1,0.8c-1.8,0-3.2-1.4-3.2-3.9c0-2.6,1.4-3.9,3.2-3.9
		C190.7,426.4,191.3,426.6,191.8,427.1z" />
        <path class="st5" d="M198.2,431.3h-1.3v2.7h-0.7v-6.2h1.7c1.7,0,2.5,0.6,2.5,1.7c0,0.9-0.5,1.4-1.5,1.6l1.9,2.8h-0.8L198.2,431.3z
		 M198,430.8c1.1,0,1.7-0.4,1.7-1.2c0-0.8-0.5-1.2-1.8-1.2h-1v2.4H198z" />
        <path class="st5" d="M208.1,432.4h-2.8l-0.6,1.7H204l2.3-6.2h0.8l2.3,6.2h-0.7L208.1,432.4z M207.9,431.8l-1.2-3.5l-1.2,3.5H207.9z
		" />
        <path class="st5" d="M217,428.4h-2.7v2.3h2.4v0.5h-2.4v2.8h-0.7v-6.2h3.5L217,428.4z" />
        <path class="st5" d="M224.9,428.4h-2v5.6h-0.7v-5.6h-2v-0.6h4.7L224.9,428.4z" />
        <path class="st5" d="M229.8,434h-0.7v-6.2h0.7V434z" />
        <path class="st5" d="M239.7,434h-0.9l-3.1-5.6c0,0.5,0.1,1.1,0.1,2.3v3.3h-0.6v-6.2h0.9l3.2,5.6c0-0.3-0.1-1.1-0.1-2v-3.6h0.6V434z
		" />
        <path class="st5" d="M249.2,428.4l-0.4,0.4c-0.5-0.3-0.9-0.5-1.5-0.5c-1.1,0-2.2,0.7-2.2,2.6c0,1.9,0.8,2.7,2.2,2.7
		c0.6,0,1-0.1,1.4-0.3v-2.1h-1.3l-0.1-0.5h2.1v2.9c-0.6,0.3-1.3,0.5-2.1,0.5c-1.7,0-2.8-1.1-2.8-3.2c0-2.1,1.4-3.2,2.9-3.2
		C248.1,427.7,248.7,428,249.2,428.4z" />
        <path class="st5" d="M263,432.4h-2.8l-0.6,1.7h-0.7l2.3-6.2h0.8l2.3,6.2h-0.7L263,432.4z M262.9,431.8l-1.2-3.5l-1.2,3.5H262.9z" />
        <path class="st5" d="M272.9,432.3c0,1.2-1,1.7-2.5,1.7h-1.9v-6.2h1.6c1.6,0,2.5,0.5,2.5,1.6c0,0.8-0.5,1.2-1.2,1.3
		C272.2,430.8,272.9,431.2,272.9,432.3z M269.2,428.4v2.2h1.3c0.8,0,1.4-0.4,1.4-1.1c0-0.8-0.6-1.1-1.8-1.1H269.2z M272.2,432.3
		c0-0.9-0.7-1.3-1.6-1.3h-1.4v2.5h1.3C271.5,433.5,272.2,433.1,272.2,432.3z" />
        <path class="st5" d="M278.2,434h-0.7v-6.2h0.7V434z" />
        <path class="st5" d="M284.2,433.5h2.9l-0.1,0.6h-3.4v-6.2h0.7V433.5z" />
        <path class="st5" d="M291.9,434h-0.7v-6.2h0.7V434z" />
        <path class="st5" d="M300.7,428.4h-2v5.6h-0.7v-5.6h-2v-0.6h4.7L300.7,428.4z" />
        <path class="st5" d="M305.6,434h-0.7v-6.2h0.7V434z" />
        <path class="st5" d="M314.4,428.4h-2.8v2.2h2.4v0.5h-2.4v2.4h2.9v0.5h-3.6v-6.2h3.5L314.4,428.4z" />
        <path class="st5" d="M322.6,428.4l-0.4,0.4c-0.5-0.4-1-0.6-1.7-0.6c-0.8,0-1.4,0.4-1.4,1c0,0.6,0.4,0.9,1.6,1.2
		c1.2,0.3,2.1,0.7,2.1,1.8c0,1.1-0.9,1.8-2.3,1.8c-1,0-1.7-0.3-2.3-0.8l0.4-0.4c0.5,0.4,1.1,0.7,1.9,0.7c1,0,1.6-0.4,1.6-1.3
		c0-0.7-0.4-1-1.6-1.4c-1.4-0.4-2-0.8-2-1.7c0-0.9,0.8-1.6,2.1-1.6C321.5,427.7,322.1,428,322.6,428.4z" />
    </g>
    <path id="Tick" class="st5" d="M27.6,368.7c-4.7,0-8.6,3.6-8.6,8.1c0,4.5,3.8,8.1,8.6,8.1s8.6-3.6,8.6-8.1
	C36.2,372.3,32.3,368.7,27.6,368.7z M27.6,384.1c-4.2,0-7.7-3.3-7.7-7.3s3.4-7.3,7.7-7.3s7.7,3.3,7.7,7.3S31.8,384.1,27.6,384.1z
	 M32.8,374.1c-0.2-0.2-0.5-0.2-0.6,0l-5.7,5.5l-2.4-2.3c-0.2-0.2-0.5-0.2-0.6,0s-0.2,0.4,0,0.6l2.7,2.6c0.1,0.1,0.2,0.1,0.3,0.1
	c0.1,0,0.2,0,0.3-0.1l6.1-5.8C32.9,374.5,32.9,374.2,32.8,374.1z" />
    <path id="Tick_1_" class="st5" d="M26.9,386c-4.7,0-8.6,3.6-8.6,8.1c0,4.5,3.8,8.1,8.6,8.1s8.6-3.6,8.6-8.1
	C35.5,389.7,31.7,386,26.9,386z M26.9,401.4c-4.2,0-7.7-3.3-7.7-7.3s3.4-7.3,7.7-7.3s7.7,3.3,7.7,7.3S31.2,401.4,26.9,401.4z
	 M32.1,391.4c-0.2-0.2-0.5-0.2-0.6,0l-5.7,5.5l-2.4-2.3c-0.2-0.2-0.5-0.2-0.6,0c-0.2,0.2-0.2,0.4,0,0.6l2.7,2.6
	c0.1,0.1,0.2,0.1,0.3,0.1c0.1,0,0.2,0,0.3-0.1l6.1-5.8C32.3,391.8,32.3,391.6,32.1,391.4z" />
    <path id="Tick_2_" class="st5" d="M191.9,386.9c-4.7,0-8.6,3.6-8.6,8.1c0,4.5,3.8,8.1,8.6,8.1c4.7,0,8.6-3.6,8.6-8.1
	C200.5,390.6,196.7,386.9,191.9,386.9z M191.9,402.4c-4.2,0-7.7-3.3-7.7-7.3s3.4-7.3,7.7-7.3c4.2,0,7.7,3.3,7.7,7.3
	S196.2,402.4,191.9,402.4z M197.1,392.3c-0.2-0.2-0.5-0.2-0.6,0l-5.7,5.5l-2.4-2.3c-0.2-0.2-0.5-0.2-0.6,0c-0.2,0.2-0.2,0.4,0,0.6
	l2.7,2.6c0.1,0.1,0.2,0.1,0.3,0.1c0.1,0,0.2,0,0.3-0.1l6.1-5.8C197.3,392.8,197.3,392.5,197.1,392.3z" />
    <path id="Tick_3_" class="st5" d="M26.9,403.3c-4.7,0-8.6,3.6-8.6,8.1c0,4.5,3.8,8.1,8.6,8.1s8.6-3.6,8.6-8.1
	C35.5,407,31.7,403.3,26.9,403.3z M26.9,418.8c-4.2,0-7.7-3.3-7.7-7.3s3.4-7.3,7.7-7.3s7.7,3.3,7.7,7.3S31.2,418.8,26.9,418.8z
	 M32.1,408.7c-0.2-0.2-0.5-0.2-0.6,0l-5.7,5.5l-2.4-2.3c-0.2-0.2-0.5-0.2-0.6,0s-0.2,0.4,0,0.6l2.7,2.6c0.1,0.1,0.2,0.1,0.3,0.1
	c0.1,0,0.2,0,0.3-0.1l6.1-5.8C32.3,409.2,32.3,408.9,32.1,408.7z" />
    <path id="Tick_4_" class="st5" d="M26.9,421c-4.7,0-8.6,3.6-8.6,8.1s3.8,8.1,8.6,8.1s8.6-3.6,8.6-8.1S31.7,421,26.9,421z
	 M26.9,436.4c-4.2,0-7.7-3.3-7.7-7.3s3.4-7.3,7.7-7.3s7.7,3.3,7.7,7.3S31.2,436.4,26.9,436.4z M32.1,426.4c-0.2-0.2-0.5-0.2-0.6,0
	l-5.7,5.5l-2.4-2.3c-0.2-0.2-0.5-0.2-0.6,0c-0.2,0.2-0.2,0.4,0,0.6l2.7,2.6c0.1,0.1,0.2,0.1,0.3,0.1c0.1,0,0.2,0,0.3-0.1l6.1-5.8
	C32.3,426.8,32.3,426.6,32.1,426.4z" />
    <path id="Tick_5_" class="st5" d="M217.6,368.7c-4.7,0-8.6,3.6-8.6,8.1c0,4.5,3.8,8.1,8.6,8.1s8.6-3.6,8.6-8.1
	C226.1,372.3,222.3,368.7,217.6,368.7z M217.6,384.1c-4.2,0-7.7-3.3-7.7-7.3s3.4-7.3,7.7-7.3s7.7,3.3,7.7,7.3
	S221.8,384.1,217.6,384.1z M222.7,374.1c-0.2-0.2-0.5-0.2-0.6,0l-5.7,5.5l-2.4-2.3c-0.2-0.2-0.5-0.2-0.6,0s-0.2,0.4,0,0.6l2.7,2.6
	c0.1,0.1,0.2,0.1,0.3,0.1c0.1,0,0.2,0,0.3-0.1l6.1-5.8C222.9,374.5,222.9,374.2,222.7,374.1z" />
    <g>
        <path class="st6" d="M45.6,465.8v3.6h-0.2l-2.7-3.1v3.1h-0.3v-3.6h0.2l2.7,3.1v-3.1H45.6z" />
        <path class="st6" d="M48.8,465.7l1.6,3.6h-0.3l-0.6-1.2h-1.7l-0.6,1.2H47l1.6-3.6H48.8z M49.5,467.9l-0.8-1.7l-0.8,1.7H49.5z" />
        <path class="st6" d="M54,465.8v0.2h-1.3v3.3h-0.3V466H51v-0.2H54z" />
        <path class="st6" d="M55.7,465.8v3.6h-0.3v-3.6H55.7z" />
        <path class="st6" d="M60.2,465.8l-1.5,3.6h-0.1l-1.5-3.6h0.3l1.3,3l1.2-3H60.2z" />
        <path class="st6" d="M63.7,465.8v0.2H62v1.4h1.6v0.2H62v1.4h1.7v0.2h-2v-3.6H63.7z" />
    </g>
    <g>
        <path class="st6" d="M44.2,485.4v0.2h-1.5v1.3H44v0.2h-1.4v1.7h-0.3v-3.4H44.2z" />
        <path class="st6" d="M45.9,485.4v3.2h1.7v0.2h-2v-3.4H45.9z" />
        <path class="st6" d="M51.5,485.4h0.3v1.9c0,0.5-0.1,0.9-0.4,1.2c-0.3,0.3-0.6,0.4-1,0.4c-0.4,0-0.8-0.1-1-0.4
		c-0.3-0.3-0.4-0.7-0.4-1.1v-1.9h0.3v1.9c0,0.4,0.1,0.7,0.3,1c0.2,0.2,0.5,0.3,0.8,0.3c0.3,0,0.6-0.1,0.8-0.4s0.3-0.6,0.3-1V485.4z" />
        <path class="st6" d="M55.4,485.4v0.2h-1.6v1.4h1.6v0.2h-1.6v1.4h1.6v0.2h-1.9v-3.4H55.4z" />
        <path class="st6" d="M60.1,485.4v3.4h-0.2l-2.6-3v3H57v-3.4h0.2l2.6,3v-3H60.1z" />
        <path class="st6" d="M64.4,485.4v0.2h-1.3v3.2h-0.3v-3.2h-1.3v-0.2H64.4z" />
    </g>
    <g>
        <path class="st6" d="M42.7,505v3.3h-0.3V505H42.7z" />
        <path class="st6" d="M47.5,505v3.3h-0.2l-2.5-2.9v2.9h-0.3V505h0.2l2.5,2.9V505H47.5z" />
        <path class="st6" d="M51.6,505v0.2h-1.3v3.1h-0.3v-3.1h-1.3V505H51.6z" />
        <path class="st6" d="M54.9,505v0.2h-1.6v1.3h1.5v0.2h-1.5v1.4h1.6v0.2H53V505H54.9z" />
        <path class="st6" d="M56.4,505h0.9c0.4,0,0.6,0.1,0.8,0.2c0.2,0.2,0.3,0.4,0.3,0.6c0,0.4-0.2,0.7-0.6,0.8c0.1,0.1,0.3,0.2,0.4,0.5
		l0.8,1.2h-0.3l-0.6-0.9c-0.2-0.3-0.3-0.5-0.5-0.6c-0.1-0.1-0.3-0.1-0.5-0.1h-0.5v1.6h-0.3V505z M56.7,505.2v1.3h0.6
		c0.3,0,0.5-0.1,0.6-0.2c0.1-0.1,0.2-0.3,0.2-0.5c0-0.2-0.1-0.4-0.2-0.5c-0.2-0.1-0.4-0.2-0.7-0.2H56.7z" />
        <path class="st6" d="M61.7,506.5L63,505h0.3v3.3H63v-3l-1.3,1.6l-1.3-1.6v3h-0.3V505h0.3L61.7,506.5z" />
        <path class="st6" d="M66.9,505v0.2h-1.6v1.3h1.5v0.2h-1.5v1.4h1.6v0.2H65V505H66.9z" />
        <path class="st6" d="M68.4,505h1.2c0.6,0,1,0.2,1.4,0.5c0.3,0.3,0.5,0.7,0.5,1.2c0,0.5-0.2,0.9-0.5,1.2c-0.3,0.3-0.7,0.5-1.3,0.5
		h-1.2V505z M68.7,505.2v2.9h0.9c0.4,0,0.8-0.1,1.1-0.4c0.3-0.3,0.4-0.6,0.4-1.1c0-0.4-0.1-0.8-0.4-1.1c-0.3-0.3-0.7-0.4-1.1-0.4
		H68.7z" />
        <path class="st6" d="M73.3,505v3.3H73V505H73.3z" />
        <path class="st6" d="M76.4,505l1.5,3.4h-0.3l-0.5-1.2h-1.6l-0.5,1.2h-0.3l1.5-3.4H76.4z M77,507l-0.7-1.6l-0.7,1.6H77z" />
        <path class="st6" d="M81.2,505v0.2h-1.3v3.1h-0.3v-3.1h-1.3V505H81.2z" />
        <path class="st6" d="M84.4,505v0.2h-1.6v1.3h1.5v0.2h-1.5v1.4h1.6v0.2h-1.9V505H84.4z" />
    </g>
    <line class="st7" x1="39.1" y1="457.9" x2="39.1" y2="517" />
    <line class="st8" x1="374" y1="607.7" x2="523.5" y2="607.7" />
    <line class="st8" x1="374" y1="632.7" x2="523.5" y2="632.7" />
    <line class="st7" x1="230.6" y1="464.6" x2="230.6" y2="510.9" />
    <g id="Thinking_Man">
    </g>
    <g>
        <path d="M576.7,621.3c-0.3-0.2-0.4-0.4-0.4-0.8c-0.1-1.8-0.7-3.3-2-4.6c-0.1-0.1-0.2-0.2-0.3-0.4h4.4c0-1.7-0.5-3.1-1.6-4.3
		c-1.1-1.1-2.4-1.8-3.8-2.3c-4.1-1.4-8.4-1.5-12.6-0.7c-2.2,0.4-4.2,1.3-5.9,2.9c-2.1,2.1-2.6,6.2,0.8,8.2c0.1,0.1,0.2,0.4,0.2,0.6
		c0,1,0,2,0.1,3c0.1,0.6,0.4,1.2,0.6,1.9h-4.5c0,1.7,0.4,3.1,1.4,4.3c1.5,1.8,3.4,2.8,5.6,3.3c4.2,1.1,8.4,1.1,12.6,0.3
		c2-0.4,4-1,5.7-2.1C580,628.7,580.5,623.5,576.7,621.3z M557.9,613.2c0.7-1,1.6-1.6,2.7-1.9c3.2-0.8,6.5-0.8,9.6,0.2
		c1.8,0.6,3,1.8,3.4,3.7c0,0.1,0,0.1,0,0.3c-2.5-1.8-5.3-2.1-8.1-2.1c-2.9,0-5.6,0.5-7.9,2.5C557.2,614.9,557.3,614,557.9,613.2z
		 M559.8,617.4c0,0,0-0.1-0.1-0.2c0.5-0.4,1-0.8,1.5-1.1c1.7-0.9,3.6-1.1,5.5-1c1.2,0.1,2.4,0.3,3.5,0.9c1.3,0.7,2.3,1.7,2.7,3.2
		c0.1,0.2,0.1,0.4,0.1,0.6C568.7,618.9,564.2,618.6,559.8,617.4z M572.8,623.5c-0.8,1.7-1.9,2.9-3.7,3.4c-2.4,0.7-4.8,0.6-7.1-0.2
		c-2.4-0.8-3.9-3.3-3.7-5.8c0-0.1,0-0.2,0.1-0.3C563.1,621.8,568.1,621.9,572.8,623.5z M573.5,628.7c-1,0.8-2.3,1.2-3.5,1.5
		c-3.3,0.6-6.6,0.7-9.9-0.4c-2-0.7-3.4-2-3.8-4.1c0-0.1,0-0.2,0-0.3c0,0,0-0.1,0-0.2c0,0,0.1,0,0.1,0c2,2.9,5,3.8,8.2,4
		c2.6,0.2,5.1-0.1,7.4-1.3c0.9-0.5,1.7-1.2,2.7-1.8C574.7,627.1,574.3,628,573.5,628.7z" />
    </g>
    <g>
        <circle class="st9" cx="204.5" cy="467.9" r="3.3" />
        <g>
            <polygon class="st9" points="211.2,487.9 205.2,473.3 207.9,470.4 215.1,485.3 		" />
        </g>
        <polyline class="st9" points="213,484.1 210.9,496.4 202.2,505.4 200.3,505.4 199.3,511.7 	" />
        <polygon class="st9" points="215,484.9 214.1,498.3 214.1,498.5 214.1,498.5 211.4,508.7 211.3,508.4 214.3,510.9 211,508.9 
		210.9,508.8 210.9,508.6 211.9,498.1 211.9,498.3 211,484.9 	" />
        <polygon class="st9" points="206.8,474.5 209.8,467.2 210.4,468.1 205.2,466.5 210.6,466.7 211.3,466.7 211.2,467.6 209.7,475.3 	
		" />
        <polygon class="st9" points="194.3,484.2 191.7,483.1 190.6,482.6 191.3,481.7 203,467.4 192.7,482.8 192.3,481.4 195,482.3 	" />
    </g>
    <g>
        <g>
            <line class="st10" x1="27.1" y1="622" x2="28.1" y2="622" />
            <line class="st11" x1="30.1" y1="622" x2="231.5" y2="622" />
            <line class="st10" x1="232.5" y1="622" x2="233.5" y2="622" />
        </g>
    </g>
    <g>
        <g>
            <line class="st10" x1="27.1" y1="612.5" x2="28.1" y2="612.5" />
            <line class="st11" x1="30.1" y1="612.5" x2="231.5" y2="612.5" />
            <line class="st10" x1="232.5" y1="612.5" x2="233.5" y2="612.5" />
        </g>
    </g>
    <g>
        <g>
            <line class="st10" x1="27.1" y1="602.9" x2="28.1" y2="602.9" />
            <line class="st11" x1="30.1" y1="602.9" x2="231.5" y2="602.9" />
            <line class="st10" x1="232.5" y1="602.9" x2="233.5" y2="602.9" />
        </g>
    </g>
    <g>
        <g>
            <line class="st10" x1="27.1" y1="593.4" x2="28.1" y2="593.4" />
            <line class="st11" x1="30.1" y1="593.4" x2="231.5" y2="593.4" />
            <line class="st10" x1="232.5" y1="593.4" x2="233.5" y2="593.4" />
        </g>
    </g>
    <g>
        <g>
            <line class="st10" x1="27.1" y1="583.8" x2="28.1" y2="583.8" />
            <line class="st11" x1="30.1" y1="583.8" x2="231.5" y2="583.8" />
            <line class="st10" x1="232.5" y1="583.8" x2="233.5" y2="583.8" />
        </g>
    </g>
    <g>
        <g>
            <line class="st10" x1="27.1" y1="574.2" x2="28.1" y2="574.2" />
            <line class="st11" x1="30.1" y1="574.2" x2="231.5" y2="574.2" />
            <line class="st10" x1="232.5" y1="574.2" x2="233.5" y2="574.2" />
        </g>
    </g>
    <g>
        <g>
            <line class="st10" x1="27.1" y1="564.7" x2="28.1" y2="564.7" />
            <line class="st11" x1="30.1" y1="564.7" x2="231.5" y2="564.7" />
            <line class="st10" x1="232.5" y1="564.7" x2="233.5" y2="564.7" />
        </g>
    </g>
    <g>
        <g>
            <line class="st10" x1="27.1" y1="555.1" x2="28.1" y2="555.1" />
            <line class="st11" x1="30.1" y1="555.1" x2="231.5" y2="555.1" />
            <line class="st10" x1="232.5" y1="555.1" x2="233.5" y2="555.1" />
        </g>
    </g>
    <g>
        <g>
            <line class="st10" x1="27.1" y1="545.5" x2="28.1" y2="545.5" />
            <line class="st11" x1="30.1" y1="545.5" x2="231.5" y2="545.5" />
            <line class="st10" x1="232.5" y1="545.5" x2="233.5" y2="545.5" />
        </g>
    </g>
    <g>
        <g>
            <line class="st10" x1="27.1" y1="536" x2="28.1" y2="536" />
            <line class="st11" x1="30.1" y1="536" x2="231.5" y2="536" />
            <line class="st10" x1="232.5" y1="536" x2="233.5" y2="536" />
        </g>
    </g>
    <g>
        <g>
            <line class="st10" x1="241.3" y1="535.4" x2="241.3" y2="536.4" />
            <line class="st12" x1="241.3" y1="538.4" x2="241.3" y2="630.2" />
            <line class="st10" x1="241.3" y1="631.2" x2="241.3" y2="632.2" />
        </g>
    </g>
    <line class="st0" x1="36.1" y1="622" x2="36.1" y2="540.7" />
    <g>
        <rect x="32.1" y="536.2" class="st13" width="8" height="85.8" />
    </g>
    <g>
        <rect x="55.9" y="536" class="st13" width="8" height="86.1" />
    </g>
    <g>
        <rect x="79.3" y="536.2" class="st13" width="8" height="85.8" />
    </g>
    <g>
        <rect x="39.6" y="502.3" class="st13" width="110.6" height="8" />
    </g>
    <g>
        <rect x="39.6" y="482.9" class="st13" width="110.6" height="8" />
    </g>
    <g>
        <rect x="102.8" y="536.2" class="st13" width="8" height="85.8" />
    </g>
    <g>
        <rect x="126.5" y="536.2" class="st13" width="8" height="85.8" />
    </g>
    <g>
        <rect x="150" y="536.2" class="st13" width="8" height="85.8" />
    </g>
    <g>
        <rect x="177.1" y="536.2" class="st13" width="8" height="85.8" />
    </g>
    <g>
        <rect x="212.3" y="536.2" class="st13" width="8" height="85.8" />
    </g>
    <line class="st0" x1="59.9" y1="622" x2="59.9" y2="540.4" />
    <line class="st0" x1="83.4" y1="622" x2="83.4" y2="540.7" />
    <line class="st0" x1="106.8" y1="622" x2="106.8" y2="578.6" />
    <line class="st0" x1="130.5" y1="622" x2="130.5" y2="590.1" />
    <line class="st0" x1="154" y1="622" x2="154" y2="567.9" />
    <line class="st0" x1="181.1" y1="622" x2="181.1" y2="586.9" />
    <line class="st0" x1="216.3" y1="622" x2="216.3" y2="576.9" />
    <line class="st14" x1="19" y1="446.4" x2="324.7" y2="446.4" />
    <line class="st14" x1="19" y1="522.9" x2="324.7" y2="522.9" />
    <rect x="20.8" y="56.4" class="st1" width="308.7" height="255.9" />
    <text transform="matrix(1 0 0 1 20.7646 62.8205)">
        <tspan x="0" y="0" class="st5 st3 st15">National Geographic Magazine, Washington D.C. | Aug - Jan 2017. </tspan>
        <tspan x="0" y="10.8" class="st2 st3 st15">Associate Design Editor - Collaborate with the Design Director, and Design </tspan>
        <tspan x="0" y="21.6" class="st2 st3 st15">Editors to produce layouts for stories. Responsible of creating layouts for </tspan>
        <tspan x="0" y="32.4" class="st2 st3 st15">the short stories. Convert and build print stories for iPad.</tspan>
        <tspan x="0" y="54" class="st5 st3 st15">National Geographic Magazine, Washington D.C. | Jan - May 2017. </tspan>
        <tspan x="0" y="64.8" class="st2 st3 st15">Jr. Graphics Editor - Collaborate with the Art Director, Design Director, </tspan>
        <tspan x="0" y="75.6" class="st2 st3 st15">and Graphic editors to produce information graphics, art, maps and layouts </tspan>
        <tspan x="0" y="86.4" class="st2 st3 st15">for stories. Assist with large projects, implementing changes from editors </tspan>
        <tspan x="0" y="97.2" class="st2 st3 st15">and designers and assuring quality control. Convert and prepare graphics </tspan>
        <tspan x="0" y="108" class="st2 st3 st15">for e-publishing formats and web</tspan>
        <tspan x="133.4" y="108" class="st5 st3 st15">.</tspan>
        <tspan x="0" y="129.6" class="st5 st3 st15">Hollister. Co | Bellevue, WA | Summer 2009 &amp; 2011</tspan>
        <tspan x="0" y="140.4" class="st2 st3 st15">Sales Associate - Responsible for organizing the store, working in a team </tspan>
        <tspan x="0" y="151.2" class="st2 st3 st15">environment, actively engaging in developing more effective customer </tspan>
        <tspan x="0" y="162" class="st2 st3 st15">service skills, communicating with managers regarding customer concerns </tspan>
        <tspan x="0" y="172.8" class="st2 st3 st15">and employee matters. </tspan>
        <tspan x="0" y="194.4" class="st5 st3 st15">Domestika Course “Make an Infographic that will make History” | Feb - Apr </tspan>
        <tspan x="0" y="205.2" class="st5 st3 st15">2015. </tspan>
        <tspan x="25" y="205.2" class="st2 st3 st15">Creation of an Infographic experimenting with different media for </tspan>
        <tspan x="0" y="216" class="st2 st3 st15">the Illustration. Learning outcomes include: primary illustration, secondary </tspan>
        <tspan x="0" y="226.8" class="st2 st3 st15">illustrations, importance of the layout, perspective of the illustrations, </tspan>
        <tspan x="0" y="237.6" class="st2 st3 st15">effective ways to explain a process. </tspan>
    </text>
    <rect x="374.5" y="285.1" class="st1" width="230.4" height="106.4" />
    <text transform="matrix(1 0 0 1 374.5398 291.5662)">
        <tspan x="0" y="0" class="st5 st3 st15">Art Institute of Pittsburgh | Pittsburgh, PA</tspan>
        <tspan x="0" y="12" class="st5 st3 st15">Nov. 2013 – Jun. 2016</tspan>
        <tspan x="0" y="24" class="st2 st3 st15">Bachelor of Science in Graphic Design </tspan>
        <tspan x="0" y="36" class="st2 st3 st15">Degree | 3.80 GPA</tspan>
        <tspan x="0" y="60" class="st5 st3 st15">University of Mount Olive | Mount Olive, NC </tspan>
        <tspan x="177" y="60" class="st5 st3 st15"> </tspan>
        <tspan x="0" y="72" class="st5 st3 st15">Aug. 2009 – Oct. 2011</tspan>
        <tspan x="0" y="84" class="st2 st3 st15">Bachelor of Arts in Visual Communications </tspan>
        <tspan x="0" y="96" class="st2 st3 st15">(Transfer) | 3.11 GPA</tspan>
    </text>
    <rect x="401.1" y="57.2" class="st1" width="156.6" height="39.1" />
    <text transform="matrix(1 0 0 1 401.1277 63.6368)">
        <tspan x="0" y="0" class="st5 st3 st15">oscar.a.santamarina@gmail.com</tspan>
        <tspan x="0" y="19" class="st5 st3 st15">(425) 301-4770</tspan>
    </text>
    <rect x="374.5" y="456.1" class="st1" width="230.4" height="134" />
    <text transform="matrix(1 0 0 1 374.5402 462.5113)">
        <tspan x="0" y="0" class="st5 st3 st15">Art Institute of Pittsburgh</tspan>
        <tspan x="0" y="12" class="st2 st3 st15">• Dean’s List | March 2014 &amp; October 2014</tspan>
        <tspan x="0" y="24" class="st2 st3 st15">• Academic Achievement Grant | October 2014</tspan>
        <tspan x="0" y="48" class="st5 st3 st15">University of Mount Olive</tspan>
        <tspan x="0" y="60" class="st2 st3 st15">• Student-Athlete Honor Roll | 2010</tspan>
        <tspan x="0" y="72" class="st2 st3 st15">• Merit Scholarship | 2009 - 2011</tspan>
        <tspan x="0" y="84" class="st2 st3 st15">• Presidential Scholarship | 2009 - 2011</tspan>
        <tspan x="0" y="96" class="st2 st3 st15">• Visual Communication Scholarship | 2010 - 2011</tspan>
        <tspan x="0" y="108" class="st2 st3 st15">• Men’s Golf Scholarship | 2009 - 2011</tspan>
    </text>
    <g>
        <rect x="374.5" y="144.5" class="st1" width="210.2" height="96.8" />
        <text transform="matrix(1 0 0 1 374.5398 152.2129)">
            <tspan x="0" y="0" class="st5 st3 st15">Develop a successful career in the graphics and </tspan>
            <tspan x="0" y="13" class="st5 st3 st15">visual communications industry in a dynamic and </tspan>
            <tspan x="0" y="26" class="st5 st3 st15">creative environment. Participate in lead challeng</tspan>
            <tspan x="197.4" y="26" class="st5 st3 st15">-</tspan>
            <tspan x="0" y="39" class="st5 st3 st15">ing, innovative and creative projects that drive </tspan>
            <tspan x="0" y="52" class="st5 st3 st15">strong brand presence and business growth for </tspan>
            <tspan x="0" y="65" class="st5 st3 st15">both the company and its clients.</tspan>
        </text>
    </g>
    <rect x="370.1" y="25.3" class="st1" width="211.1" height="19.2" />
    <text transform="matrix(1 0 0 1 408.8853 31.0299)">
        <tspan x="0" y="0" class="st16 st17 st18">PERSONAL INFORMATION</tspan>
        <tspan x="62.8" y="7" class="st16 st17 st18">―</tspan>
    </text>
    <rect x="-5.5" y="25.3" class="st1" width="341.1" height="30.7" />
    <text transform="matrix(1 0 0 1 132.0669 31.0301)">
        <tspan x="0" y="0" class="st16 st17 st18">EXPERIENCE </tspan>
        <tspan x="29" y="7" class="st16 st17 st18">―</tspan>
    </text>
    <rect x="-5.5" y="333" class="st1" width="341.1" height="30.7" />
    <text transform="matrix(1 0 0 1 67.7242 338.7101)">
        <tspan x="0" y="0" class="st16 st17 st18">SKILLS &amp; ADDITIONAL INFORMATION </tspan>
        <tspan x="93.3" y="7" class="st16 st17 st18">―</tspan>
    </text>
    <rect x="370.1" y="121.8" class="st1" width="211" height="30.7" />
    <text transform="matrix(1 0 0 1 446.5687 127.5382)">
        <tspan x="0" y="0" class="st16 st17 st18">OBJECTIVE </tspan>
        <tspan x="25.1" y="7" class="st16 st17 st18">―</tspan>
    </text>
    <rect x="370.1" y="258.2" class="st1" width="211" height="30.7" />
    <text transform="matrix(1 0 0 1 445.4633 263.9624)">
        <tspan x="0" y="0" class="st16 st17 st18">EDUCATION</tspan>
        <tspan x="26.2" y="7" class="st16 st17 st18">―</tspan>
    </text>
    <rect x="370.1" y="430" class="st1" width="211" height="26" />
    <text transform="matrix(1 0 0 1 423.7748 435.7463)">
        <tspan x="0" y="0" class="st16 st17 st18">HONORS &amp; AWARDS </tspan>
        <tspan x="47.9" y="7" class="st16 st17 st18">―</tspan>
    </text>
    <g>
        <rect x="421.1" y="616.2" class="st1" width="104.9" height="31.2" />
        <text transform="matrix(1 0 0 1 421.1047 623.9622)" class="st2 st3 st15">References upon request</text>
    </g>
</svg>
