<svg width="17" height="18" viewBox="0 0 17 18" fill="none" xmlns="http://www.w3.org/2000/svg">
<path fill-rule="evenodd" clip-rule="evenodd" d="M3.75537 11.3459C3.75537 6.93255 5.40753 5.46118 10.3632 5.46118C15.3197 5.46118 16.9711 6.93255 16.9711 11.3459C16.9711 15.7593 15.3197 17.2307 10.3632 17.2307C5.40753 17.2307 3.75537 15.7593 3.75537 11.3459Z" fill="#FDE3D4"/>
<path d="M10.4503 2.90388V2.43237C10.4503 1.48637 9.75952 0.719238 8.90857 0.719238H7.10862C6.25769 0.719238 5.56689 1.48637 5.56689 2.43237V2.90388" stroke="#FAB071" stroke-linecap="round" stroke-linejoin="round"/>
<path d="M8.00848 11.0274V9.06055" stroke="#FAB071" stroke-linecap="round" stroke-linejoin="round"/>
<path d="M14.8405 7.25635L14.8188 7.27206C13.0061 8.38871 10.6127 9.06303 8.00521 9.06303C5.39772 9.06303 3.01101 8.38871 1.19909 7.27206L1.17664 7.25635" stroke="#FAB071" stroke-linecap="round" stroke-linejoin="round"/>
<path fill-rule="evenodd" clip-rule="evenodd" d="M1.09326 8.91711C1.09326 4.31284 2.81687 2.77783 7.98693 2.77783C13.1578 2.77783 14.8806 4.31284 14.8806 8.91711C14.8806 13.5214 13.1578 15.0564 7.98693 15.0564C2.81687 15.0564 1.09326 13.5214 1.09326 8.91711Z" stroke="#FAB071" stroke-linecap="round" stroke-linejoin="round"/>
</svg>
