<svg width="11" height="14" viewBox="0 0 11 14" fill="none" xmlns="http://www.w3.org/2000/svg">
<path d="M10.1995 5.88419C10.1995 9.70237 5.39949 12.9751 5.39949 12.9751C5.39949 12.9751 0.599487 9.70237 0.599487 5.88419C0.599487 4.58222 1.1052 3.33357 2.00537 2.41294C2.90555 1.4923 4.12645 0.975098 5.39949 0.975098C6.67253 0.975098 7.89342 1.4923 8.7936 2.41294C9.69377 3.33357 10.1995 4.58222 10.1995 5.88419Z" stroke="#929CA0" stroke-linecap="round" stroke-linejoin="round"/>
<path d="M5.39949 7.52055C6.28314 7.52055 6.99949 6.78793 6.99949 5.88419C6.99949 4.98045 6.28314 4.24783 5.39949 4.24783C4.51583 4.24783 3.79949 4.98045 3.79949 5.88419C3.79949 6.78793 4.51583 7.52055 5.39949 7.52055Z" stroke="#929CA0" stroke-linecap="round" stroke-linejoin="round"/>
</svg>
