<svg width="20" height="20" viewBox="0 0 20 20" fill="none" xmlns="http://www.w3.org/2000/svg">
<path fill-rule="evenodd" clip-rule="evenodd" d="M2.58537 0.393806C1.15751 0.393806 0 1.54687 0 2.96925C0 4.39163 1.15751 5.5447 2.58537 5.5447C4.01322 5.5447 5.17073 4.39163 5.17073 2.96925C5.17073 1.54687 4.01322 0.393806 2.58537 0.393806ZM2.58537 1.85161C1.96573 1.85161 1.46341 2.35199 1.46341 2.96925C1.46341 3.58651 1.96573 4.0869 2.58537 4.0869C3.205 4.0869 3.70732 3.58651 3.70732 2.96925C3.70732 2.35199 3.205 1.85161 2.58537 1.85161Z" fill="black" fill-opacity="0.4"/>
<path fill-rule="evenodd" clip-rule="evenodd" d="M13.7073 5.93345C12.0384 5.93345 10.4378 6.59388 9.25772 7.76946C8.07761 8.94504 7.41463 10.5395 7.41463 12.202V18.6649C7.41463 19.0675 7.74223 19.3938 8.14634 19.3938H11.8537C12.2578 19.3938 12.5854 19.0675 12.5854 18.6649V12.202C12.5854 11.9056 12.7036 11.6213 12.914 11.4117C13.1244 11.2021 13.4098 11.0843 13.7073 11.0843C14.0049 11.0843 14.2902 11.2021 14.5007 11.4117C14.7111 11.6213 14.8293 11.9056 14.8293 12.202V18.6649C14.8293 19.0675 15.1569 19.3938 15.561 19.3938H19.2683C19.6724 19.3938 20 19.0675 20 18.6649V12.202C20 10.5395 19.337 8.94504 18.1569 7.76946C16.9768 6.59388 15.3762 5.93345 13.7073 5.93345ZM13.7073 7.39125C12.4265 7.39125 11.1982 7.89809 10.2925 8.80028C9.38684 9.70247 8.87805 10.9261 8.87805 12.202V17.936H11.122V12.202C11.122 11.5189 11.3943 10.8639 11.8792 10.3809C12.364 9.89788 13.0216 9.62654 13.7073 9.62654C14.393 9.62654 15.0506 9.89788 15.5354 10.3809C16.0203 10.8639 16.2927 11.5189 16.2927 12.202V17.936H18.5366V12.202C18.5366 10.9261 18.0278 9.70247 17.1221 8.80028C16.2165 7.89809 14.9881 7.39125 13.7073 7.39125Z" fill="black"/>
<path fill-rule="evenodd" clip-rule="evenodd" d="M0.731707 6.85672C0.327597 6.85672 0 7.18306 0 7.58562V18.6649C0 19.0675 0.327597 19.3938 0.731707 19.3938H4.43902C4.84313 19.3938 5.17073 19.0675 5.17073 18.6649V7.58562C5.17073 7.18306 4.84313 6.85672 4.43902 6.85672H0.731707ZM1.46341 8.31452V17.936H3.70732V8.31452H1.46341Z" fill="black"/>
</svg>
