<svg width="22" height="22" viewBox="0 0 22 22" fill="none" xmlns="http://www.w3.org/2000/svg">
<rect x="1" y="1" width="20" height="20" rx="10" stroke="#A4AFC5"/>
<g clip-path="url(#clip0_1016_1280)">
<path fill-rule="evenodd" clip-rule="evenodd" d="M12.1919 7.5082C12.4025 7.24416 12.5286 6.9093 12.5286 6.54518C12.5286 5.6918 11.8368 5 10.9834 5C10.1301 5 9.43827 5.6918 9.43827 6.54518C9.43827 6.90351 9.56039 7.23352 9.76505 7.49558C9.30014 7.77452 8.9321 8.2261 8.80127 8.83683C8.76773 8.99341 8.75 9.1596 8.75 9.33498V9.48498H10.5V11.691L8.20108 12.8404C7.93626 12.6275 7.59974 12.5 7.23345 12.5C6.38007 12.5 5.68827 13.1918 5.68827 14.0452C5.68827 14.4035 5.81039 14.7335 6.01505 14.9956C5.55014 15.2745 5.1821 15.7261 5.05127 16.3368C5.01773 16.4934 5 16.6596 5 16.835V16.985H9.4825V16.835C9.4825 16.6599 9.46206 16.4922 9.42379 16.3332C9.28407 15.7526 8.90949 15.2959 8.44187 15.0082C8.65254 14.7442 8.77862 14.4093 8.77862 14.0452C8.77862 13.923 8.76445 13.8042 8.73765 13.6902L11 12.559L13.2328 13.6754C13.2037 13.7939 13.1883 13.9177 13.1883 14.0452C13.1883 14.4035 13.3104 14.7335 13.5151 14.9956C13.0501 15.2745 12.6821 15.7261 12.5513 16.3368C12.5177 16.4934 12.5 16.6596 12.5 16.835V16.985H16.9825V16.835C16.9825 16.6599 16.9621 16.4922 16.9238 16.3332C16.7841 15.7526 16.4095 15.2959 15.9419 15.0082C16.1525 14.7442 16.2786 14.4093 16.2786 14.0452C16.2786 13.1918 15.5868 12.5 14.7334 12.5C14.373 12.5 14.0414 12.6234 13.7786 12.8303L11.5 11.691V9.48498H13.2325V9.33498C13.2325 9.15986 13.2121 8.99219 13.1738 8.83315C13.0341 8.25257 12.6595 7.79592 12.1919 7.5082ZM10.9834 7.32362C11.4134 7.32362 11.7619 6.9751 11.7619 6.54518C11.7619 6.11525 11.4134 5.76673 10.9834 5.76673C10.5535 5.76673 10.205 6.11525 10.205 6.54518C10.205 6.9751 10.5535 7.32362 10.9834 7.32362ZM12.3161 8.71825C12.0653 8.2371 11.5324 7.92829 10.9881 7.92829C10.4137 7.92829 9.88167 8.21171 9.64587 8.71825L12.3161 8.71825ZM8.01189 14.0452C8.01189 14.4751 7.66337 14.8236 7.23345 14.8236C6.80352 14.8236 6.455 14.4751 6.455 14.0452C6.455 13.6153 6.80352 13.2667 7.23345 13.2667C7.66337 13.2667 8.01189 13.6153 8.01189 14.0452ZM7.23815 15.4283C7.78235 15.4283 8.31527 15.7371 8.56606 16.2182H5.89587C6.13167 15.7117 6.66375 15.4283 7.23815 15.4283ZM15.5119 14.0452C15.5119 14.4751 15.1634 14.8236 14.7334 14.8236C14.3035 14.8236 13.955 14.4751 13.955 14.0452C13.955 13.6153 14.3035 13.2667 14.7334 13.2667C15.1634 13.2667 15.5119 13.6153 15.5119 14.0452ZM14.7381 15.4283C15.2824 15.4283 15.8153 15.7371 16.0661 16.2182H13.3959C13.6317 15.7117 14.1637 15.4283 14.7381 15.4283Z" fill="#A4AFC5"/>
</g>
<defs>
<clipPath id="clip0_1016_1280">
<rect width="12" height="12" fill="white" transform="translate(5 5)"/>
</clipPath>
</defs>
</svg>
