<svg width="20" height="20" viewBox="0 0 20 20" fill="none" xmlns="http://www.w3.org/2000/svg">
<path fill-rule="evenodd" clip-rule="evenodd" d="M10 4.9L10.8 5C12.9 5.4 14.5 7.2 14.5 9.4H5.5C5.5 7.2 7.1 5.4 9.2 5L10 4.9ZM10.5 0H9.5V1.5L9 3.5V4.1C6.4 4.5 4.5 6.8 4.5 9.5H3.5V10.5H4.5V13.5H1V14.5H2V19H0V20H20V19H18V14.5H19V13.5H15.5V10.5H16.5V9.5H15.5C15.5 6.8 13.6 4.6 11 4.1V3.5L10.5 1.5V0ZM13 13.5V10.5H14.5V13.5H13ZM10.5 13.5V10.5H12V13.5H10.5ZM8 13.5V10.5H9.5V13.5H8ZM5.5 13.5V10.5H7V13.5H5.5ZM15.5 19V14.5H17V19H15.5ZM13 19V14.5H14.5V19H13ZM10.5 19V14.5H12V19H10.5ZM8 19V14.5H9.5V19H8ZM5.5 19V14.5H7V19H5.5ZM3 19V14.5H4.5V19H3Z" fill="#9CABC2"/>
</svg>
