<svg xmlns="http://www.w3.org/2000/svg" style="display:none;">
  <symbol id="icon-search" viewBox="0 0 24 24">
    <circle cx="11" cy="11" r="8" stroke="currentColor" stroke-width="2" fill="none"/>
    <line x1="21" y1="21" x2="16.65" y2="16.65" stroke="currentColor" stroke-width="2"/>
  </symbol>
  <symbol id="icon-user" viewBox="0 0 24 24">
    <circle cx="12" cy="8" r="4" stroke="currentColor" stroke-width="2" fill="none"/>
    <path d="M4 20c0-4 8-4 8-4s8 0 8 4" stroke="currentColor" stroke-width="2" fill="none"/>
  </symbol>
  <symbol id="icon-x" viewBox="0 0 24 24">
    <line x1="18" y1="6" x2="6" y2="18" stroke="currentColor" stroke-width="2"/>
    <line x1="6" y1="6" x2="18" y2="18" stroke="currentColor" stroke-width="2"/>
  </symbol>
  <symbol id="icon-list" viewBox="0 0 24 24">
    <rect x="4" y="6" width="16" height="2" rx="1" fill="none" stroke="currentColor" stroke-width="2"/>
    <rect x="4" y="11" width="16" height="2" rx="1" fill="none" stroke="currentColor" stroke-width="2"/>
    <rect x="4" y="16" width="16" height="2" rx="1" fill="none" stroke="currentColor" stroke-width="2"/>
  </symbol>
  <symbol id="icon-news" viewBox="0 0 24 24">
    <rect x="3" y="4" width="18" height="16" rx="2" fill="none" stroke="currentColor" stroke-width="2"/>
    <line x1="7" y1="8" x2="17" y2="8" stroke="currentColor" stroke-width="2"/>
    <line x1="7" y1="12" x2="17" y2="12" stroke="currentColor" stroke-width="2"/>
    <line x1="7" y1="16" x2="13" y2="16" stroke="currentColor" stroke-width="2"/>
  </symbol>
  <symbol id="icon-mail" viewBox="0 0 24 24">
    <rect x="3" y="5" width="18" height="14" rx="2" fill="none" stroke="currentColor" stroke-width="2"/>
    <polyline points="3,7 12,13 21,7" fill="none" stroke="currentColor" stroke-width="2"/>
  </symbol>
  <symbol id="icon-profile" viewBox="0 0 24 24">
    <circle cx="12" cy="8" r="4" stroke="currentColor" stroke-width="2" fill="none"/>
    <path d="M4 20c0-4 8-4 8-4s8 0 8 4" stroke="currentColor" stroke-width="2" fill="none"/>
  </symbol>
  <!-- Add more icons as needed -->
</svg>