<svg width="153" height="30" viewBox="0 0 153 30" fill="none" xmlns="http://www.w3.org/2000/svg">
<path fill-rule="evenodd" clip-rule="evenodd" d="M5.0795 13.9025H6.71213C10.7298 13.9025 12.7386 12.3726 12.7386 9.31396C12.7386 6.35511 10.6669 4.87551 6.52457 4.87551H5.0795V13.9025ZM5.0795 17.9136V29.5588H0.7052V0.882353H5.66101C8.08936 0.882353 9.9227 1.04964 11.1617 1.38387C12.4125 1.71845 13.5144 2.35 14.4657 3.27818C16.13 4.88746 16.9626 6.91849 16.9626 9.36984C16.9626 11.9948 16.0739 14.0754 14.2966 15.6105C12.5191 17.146 10.1227 17.9136 7.10679 17.9136H5.0795Z" fill="#DC0228"/>
<path fill-rule="evenodd" clip-rule="evenodd" d="M22.6951 14.9254C22.6951 18.1208 23.7721 20.7476 25.9261 22.8077C28.0674 24.8667 30.5402 25.8964 33.3454 25.8964C36.3887 25.8964 38.9554 24.8479 41.0469 22.7513C43.1387 20.6291 44.1844 18.046 44.1844 14.9998C44.1844 11.9171 43.1511 9.33362 41.0849 7.24869C39.0308 5.15241 36.4886 4.10427 33.4584 4.10427C30.4403 4.10427 27.8918 5.15241 25.8131 7.24869C23.7345 9.32157 22.6951 11.8795 22.6951 14.9254ZM18.2808 14.8786C18.2808 10.8055 19.7769 7.30791 22.7701 4.38474C25.7502 1.46158 29.332 0 33.5146 0C37.647 0 41.1909 1.47399 44.1464 4.42233C47.1147 7.37067 48.5987 10.9126 48.5987 15.047C48.5987 19.2073 47.108 22.7357 44.1276 25.634C41.1347 28.5452 37.5216 30 33.2896 30C29.545 30 26.1824 28.7079 23.202 26.1216C19.9212 23.2601 18.2808 19.5129 18.2808 14.8786Z" fill="#DC0228"/>
<path fill-rule="evenodd" clip-rule="evenodd" d="M55.117 0.882353V25.4919H63.538V29.5588H50.7957V0.882353H55.117Z" fill="#DC0228"/>
<path fill-rule="evenodd" clip-rule="evenodd" d="M65.735 29.5588H70.1289V0.882353H65.735V29.5588Z" fill="#DC0228"/>
<path fill-rule="evenodd" clip-rule="evenodd" d="M83.2965 4.94932V29.5588H78.9487V4.94932H72.3258V0.882353H89.9014V4.94932H83.2965Z" fill="#DC0228"/>
<path fill-rule="evenodd" clip-rule="evenodd" d="M92.0984 29.5588H96.4923V0.882353H92.0984V29.5588Z" fill="#DC0228"/>
<path fill-rule="evenodd" clip-rule="evenodd" d="M121.538 2.10631V7.26577C119.012 5.15663 116.398 4.10135 113.696 4.10135C110.72 4.10135 108.213 5.16867 106.174 7.30333C104.123 9.42629 103.098 12.0227 103.098 15.0936C103.098 18.1276 104.123 20.6871 106.174 22.7718C108.226 24.8568 110.739 25.899 113.715 25.899C115.254 25.899 116.561 25.6495 117.636 25.1495C118.237 24.9008 118.858 24.5631 119.502 24.1386C120.147 23.7144 120.825 23.2027 121.538 22.6028V27.8742C119.036 29.2913 116.411 30 113.66 30C109.52 30 105.987 28.5585 103.06 25.6743C100.146 22.7654 98.6892 19.258 98.6892 15.1499C98.6892 11.4667 99.9086 8.18391 102.348 5.29979C105.348 1.76683 109.231 0 113.997 0C116.598 0 119.112 0.701984 121.538 2.10631Z" fill="#DC0228"/>
<path fill-rule="evenodd" clip-rule="evenodd" d="M126.391 14.9254C126.391 18.1208 127.468 20.7476 129.622 22.8077C131.764 24.8667 134.237 25.8964 137.042 25.8964C140.085 25.8964 142.652 24.8479 144.744 22.7513C146.835 20.6291 147.881 18.046 147.881 14.9998C147.881 11.9171 146.848 9.33362 144.781 7.24869C142.728 5.15241 140.185 4.10427 137.155 4.10427C134.136 4.10427 131.588 5.15241 129.51 7.24869C127.431 9.32157 126.391 11.8795 126.391 14.9254ZM121.977 14.8786C121.977 10.8055 123.474 7.30791 126.466 4.38474C129.446 1.46158 133.028 0 137.212 0C141.344 0 144.887 1.47399 147.843 4.42233C150.811 7.37067 152.295 10.9126 152.295 15.047C152.295 19.2073 150.805 22.7357 147.824 25.634C144.831 28.5452 141.219 30 136.986 30C133.241 30 129.879 28.7079 126.898 26.1216C123.618 23.2601 121.977 19.5129 121.977 14.8786Z" fill="#DC0228"/>
</svg>
