<svg width="167" height="20" viewBox="0 0 167 20" fill="none" xmlns="http://www.w3.org/2000/svg">
<g clip-path="url(#clip0_24_2392)">
<path d="M85.1025 17.0714C83.2978 17.0714 81.6817 16.3987 80.3035 15.0615C78.9171 13.7326 78.2116 12.018 78.2116 9.95078C78.2116 7.88351 78.8925 6.30845 80.2297 4.97129C81.5668 3.61772 83.2321 2.92863 85.1763 2.92863C87.1206 2.92863 88.4331 3.47826 89.68 4.56112C90.123 3.71616 90.6808 2.91222 91.3453 2.15751C89.5816 0.746515 87.5307 0.0246118 85.2174 0.0246118C82.904 0.0246118 80.0656 1.00082 78.0968 2.93683C76.1197 4.87285 75.1189 7.21903 75.1189 9.90976C75.1189 12.6005 76.2182 15.4881 78.3839 17.3831C80.3527 19.0894 82.6005 19.959 85.0697 19.959C87.5389 19.959 89.5242 19.2453 91.3043 17.8671C90.6398 17.1206 90.082 16.3084 89.6472 15.4307C88.3839 16.5135 86.858 17.0632 85.1025 17.0632V17.0714Z" fill="#D71920"/>
<path d="M25.5127 20C23.0353 20 20.7875 19.1304 18.8105 17.4159C16.6366 15.5127 15.5373 12.9943 15.5373 9.92617C15.5373 6.85808 16.5381 4.87285 18.5234 2.92863C20.5004 0.992618 22.8958 0.00820488 25.6604 0.00820488C28.4249 0.00820488 30.7711 1.00082 32.7235 2.95324C34.6842 4.90566 35.685 7.28466 35.685 10.0328C35.685 12.781 34.6842 15.16 32.7153 17.0878C30.7301 19.0156 28.3101 20 25.5127 20ZM25.6193 2.92043C23.6751 2.92043 22.0016 3.60952 20.6645 4.97129C19.3191 6.30845 18.6464 7.99015 18.6464 9.95898C18.6464 11.9278 19.3519 13.749 20.7383 15.0861C22.1247 16.4233 23.7408 17.096 25.5455 17.096C27.3503 17.096 29.1878 16.4069 30.5414 15.0533C31.895 13.6833 32.5759 11.9852 32.5759 10.0164C32.5759 8.04758 31.9032 6.32486 30.566 4.97949C29.2371 3.61772 27.58 2.92863 25.6193 2.92863V2.92043Z" fill="#D71920"/>
<path d="M47.7276 20H37.4569V0.00820488H40.6481V16.9893H47.7276V20Z" fill="#D71920"/>
<path d="M52.6251 20H49.4339V0.00820488H52.6251V20Z" fill="#D71920"/>
<path d="M63.027 20H59.8359V3.02707H54.356V0.00820488H68.6382V3.01887H63.027V20Z" fill="#D71920"/>
<path d="M73.511 20H70.3199V0.00820488H73.511V20Z" fill="#D71920"/>
<path d="M100.115 20C97.6456 20 95.3978 19.1304 93.4208 17.4241C91.2551 15.5291 90.1558 13.0107 90.1558 9.94257C90.1558 6.87449 91.1566 4.89746 93.1337 2.96144C95.1025 1.02543 97.5061 0.0492221 100.262 0.0492221C103.019 0.0492221 105.365 1.04184 107.317 2.99426C109.278 4.94668 110.271 7.32568 110.271 10.0574C110.271 12.7892 109.27 15.1846 107.301 17.096C105.324 19.0238 102.904 20 100.115 20ZM100.23 2.94504C98.2854 2.94504 96.6201 3.63413 95.283 4.98769C93.9458 6.32485 93.2649 8.00656 93.2649 9.97539C93.2649 11.9442 93.9704 13.7654 95.3568 15.0943C96.7432 16.4233 98.3511 17.1042 100.156 17.1042C101.961 17.1042 103.798 16.4151 105.144 15.0615C106.489 13.6915 107.178 11.9934 107.178 10.0328C107.178 8.07219 106.505 6.34947 105.176 4.9959C103.847 3.64233 102.19 2.95324 100.238 2.95324H100.23V2.94504Z" fill="#D71920"/>
<path d="M3.19114 20H0V0.0328151H7.80968C11.493 0.0328151 14.4873 3.02707 14.4873 6.71042C14.4873 10.3938 11.493 13.388 7.80968 13.388H3.19114V20ZM3.19114 10.4676H7.80968C9.88515 10.4676 11.5669 8.78589 11.5669 6.71042C11.5669 4.63495 9.88515 2.95324 7.80968 2.95324H3.19114V10.4676Z" fill="#D71920"/>
<path d="M113.798 20V0.00820488H121.952C125.783 0.00820488 128.269 2.30517 128.269 5.77522C128.269 9.24528 125.783 11.4848 121.952 11.4848H115.562V19.9918H113.798V20ZM115.562 9.90156H121.862C124.881 9.90156 126.456 8.26907 126.456 5.78343C126.456 3.29779 124.881 1.59967 121.862 1.59967H115.562V9.90156Z" fill="white"/>
<path d="M130.451 20V0.00820488H138.884C142.715 0.00820488 145.201 2.19032 145.201 5.67678C145.201 9.16325 143.421 10.6071 140.55 11.1813L145.685 20H143.609L138.679 11.329H132.215V20H130.451ZM132.215 9.71288H138.794C141.813 9.71288 143.388 8.0968 143.388 5.67678C143.388 3.25677 141.813 1.63249 138.794 1.63249H132.215V9.71288Z" fill="white"/>
<path d="M146.792 10.0984C146.792 4.23298 151.025 0 156.661 0C162.297 0 166.645 4.23298 166.645 10.0984C166.645 15.9639 162.395 20 156.661 20C150.927 20 146.792 15.9229 146.792 10.0984ZM156.669 18.4249C161.444 18.4249 164.922 14.9877 164.922 10.0984C164.922 5.20919 161.46 1.57506 156.669 1.57506C151.879 1.57506 148.515 5.15176 148.515 10.0984C148.515 15.0451 151.977 18.4249 156.669 18.4249Z" fill="white"/>
</g>
<defs>
<clipPath id="clip0_24_2392">
<rect width="166.645" height="20" fill="white"/>
</clipPath>
</defs>
</svg>
