<svg width="53" height="20" viewBox="0 0 53 20" fill="none" xmlns="http://www.w3.org/2000/svg">
<g id="2024 Edition/POLITICO Pro/pro-logo_2024_monogram" clip-path="url(#clip0_193_2622)">
<g id="Logo">
<path d="M0 20V0.00820488H8.1779C12.02 0.00820488 14.5129 2.30517 14.5129 5.77523C14.5129 9.24528 12.02 11.4848 8.1779 11.4848H1.76886V19.9918H0V20ZM1.76886 9.90156H8.08739C11.115 9.90156 12.6947 8.26907 12.6947 5.78343C12.6947 3.29779 11.115 1.59967 8.08739 1.59967H1.76886V9.90156Z" fill="#5F6C85"/>
<path d="M16.7013 20V0.00820488H25.1589C29.0011 0.00820488 31.4939 2.19032 31.4939 5.67678C31.4939 9.16325 29.7086 10.6071 26.8291 11.1813L31.9793 20H29.8978L24.9533 11.329H18.4702V20H16.7013ZM18.4702 9.71288H25.0684C28.0961 9.71288 29.6757 8.0968 29.6757 5.67678C29.6757 3.25677 28.0961 1.63249 25.0684 1.63249H18.4702V9.71288Z" fill="#5F6C85"/>
<path d="M33.09 10.0984C33.09 4.23298 37.3353 0 42.9874 0C48.6395 0 53 4.23298 53 10.0984C53 15.9639 48.7383 20 42.9874 20C37.2366 20 33.09 15.9229 33.09 10.0984ZM42.9956 18.4249C47.7839 18.4249 51.2723 14.9877 51.2723 10.0984C51.2723 5.20919 47.8004 1.57506 42.9956 1.57506C38.1909 1.57506 34.8177 5.15176 34.8177 10.0984C34.8177 15.0451 38.2896 18.4249 42.9956 18.4249Z" fill="#5F6C85"/>
</g>
</g>
<defs>
<clipPath id="clip0_193_2622">
<rect width="53" height="20" fill="white"/>
</clipPath>
</defs>
</svg>
