<svg width="20" height="20" viewBox="0 0 20 20" fill="none" xmlns="http://www.w3.org/2000/svg">
<path fill-rule="evenodd" clip-rule="evenodd" d="M15.939 16.75C14.7607 14.5054 12.3698 13 10.057 13C7.609 13 5.371 14.461 4.137 16.818C3.967 16.671 3.796 16.525 3.636 16.364C1.936 14.664 1 12.404 1 10C1 7.596 1.936 5.336 3.636 3.636C5.336 1.936 7.596 1 10 1C12.404 1 14.664 1.936 16.364 3.636C18.064 5.336 19 7.596 19 10C19 12.404 18.064 14.664 16.364 16.364C16.228 16.5 16.082 16.623 15.939 16.75ZM4.82933 17.3869C5.91833 15.2409 7.84571 13.861 10.0447 13.861C12.1808 13.861 14.1267 15.2316 15.171 17.2917C13.636 18.4227 11.943 19 10 19C8.09 19 6.34933 18.4819 4.82933 17.3869ZM0 10C0 15.523 4.477 20 10 20C15.523 20 20 15.523 20 10C20 4.477 15.523 0 10 0C4.477 0 0 4.477 0 10ZM10 5C11.654 5 13 6.346 13 8C13 9.654 11.654 11 10 11C8.346 11 7 9.654 7 8C7 6.346 8.346 5 10 5ZM10 12C12.209 12 14 10.209 14 8C14 5.791 12.209 4 10 4C7.791 4 6 5.791 6 8C6 10.209 7.791 12 10 12Z" fill="#9CABC2"/>
</svg>
